{
.appVersion = "3181";
.formatVersion = 3;
DisplayStrings = (
"郑初阳
鄭初陽
𨞀䥚氜
Trịnh Sơ Dương

정초양
ていしょよう
Dzěn Tshū Yán  
Чжэн Чуян",
"/name_ug Dn",
"",
"/name_ug"
);
date = "2023-03-28 07:37:34 +0000";
familyName = xtm;
featurePrefixes = (
{
automatic = 1;
code = "languagesystem DFLT dflt;

languagesystem arab dflt;
";
name = Languagesystems;
}
);
features = (
{
code = "sub jeem-ar e-ar ng-ar space tcheh-ar u-ar yeh-ar alef-ar ng-ar by name_ug;
";
tag = rlig;
}
);
fontMaster = (
{
id = m01;
metricValues = (
{
over = 16;
pos = 800;
},
{
over = 16;
pos = 700;
},
{
over = 16;
pos = 500;
},
{
over = -16;
},
{
over = -16;
pos = -200;
},
{
}
);
name = Regular;
}
);
glyphs = (
{
glyphname = D;
lastChange = "2023-03-28 09:21:42 +0000";
layers = (
{
layerId = m01;
shapes = (
{
closed = 1;
nodes = (
(259,611,o),
(255,607,o),
(254,603,c),
(219,475,o),
(185,348,o),
(151,220,c),
(148,210,o),
(149,198,o),
(148,187,c),
(152,184,o),
(156,182,o),
(160,180,c),
(178,201,o),
(196,222,o),
(213,243,c),
(278,321,o),
(316,409,o),
(315,512,c),
(315,554,o),
(302,591,o),
(265,620,c)
);
},
{
closed = 1;
nodes = (
(396,387,o),
(363,314,o),
(319,245,c),
(275,174,o),
(214,119,o),
(143,75,c),
(133,69,o),
(124,60,o),
(114,52,c),
(88,32,o),
(62,32,o),
(39,52,c),
(16,72,o),
(15,98,o),
(28,126,c),
(49,174,o),
(71,223,o),
(86,273,c),
(121,390,o),
(157,507,o),
(185,626,c),
(202,701,o),
(294,716,o),
(335,665,c),
(363,631,o),
(383,596,o),
(390,554,c),
(394,526,o),
(396,498,o),
(399,468,c)
);
}
);
width = 359;
}
);
unicode = 68;
},
{
glyphname = S;
lastChange = "2023-03-28 09:20:26 +0000";
layers = (
{
layerId = m01;
shapes = (
{
closed = 1;
nodes = (
(356,626,o),
(284,566,o),
(215,504,c),
(171,464,o),
(172,442,o),
(211,396,c),
(227,377,o),
(246,361,o),
(263,344,c),
(285,322,o),
(309,301,o),
(329,277,c),
(373,227,o),
(371,162,o),
(321,115,c),
(259,56,o),
(185,17,o),
(102,-3,c),
(61,-13,o),
(40,-2,o),
(25,30,c),
(19,45,o),
(18,57,o),
(28,69,c),
(39,82,o),
(52,85,o),
(65,75,c),
(80,65,o),
(94,67,o),
(109,73,c),
(165,96,o),
(216,124,o),
(259,166,c),
(291,198,o),
(293,222,o),
(264,255,c),
(238,284,o),
(206,307,o),
(180,337,c),
(156,364,o),
(135,395,o),
(117,428,c),
(99,458,o),
(114,520,o),
(145,543,c),
(211,590,o),
(279,634,o),
(347,677,c),
(363,687,o),
(386,687,o),
(406,688,c),
(449,691,o),
(452,686,o),
(455,636,c)
);
}
);
width = 395;
}
);
unicode = 83;
},
{
glyphname = T;
lastChange = "2023-03-28 09:21:50 +0000";
layers = (
{
layerId = m01;
shapes = (
{
closed = 1;
nodes = (
(212,539,o),
(132,517,o),
(50,538,c),
(42,539,o),
(36,547,o),
(20,558,c),
(40,564,o),
(53,568,o),
(65,571,c),
(149,589,o),
(234,601,o),
(312,637,c),
(350,654,o),
(388,673,o),
(425,693,c),
(457,710,o),
(481,708,o),
(498,684,c),
(514,661,o),
(511,636,o),
(486,625,c),
(417,594,o),
(382,535,o),
(353,470,c),
(301,356,o),
(249,241,o),
(198,126,c),
(187,101,o),
(179,74,o),
(172,47,c),
(167,23,o),
(156,8,o),
(131,3,c),
(102,-2,o),
(88,18,o),
(74,35,c),
(61,53,o),
(60,70,o),
(75,91,c),
(92,114,o),
(104,142,o),
(116,168,c),
(172,284,o),
(228,401,o),
(283,517,c),
(288,527,o),
(291,537,o),
(298,551,c)
);
}
);
width = 309;
}
);
unicode = 84;
},
{
glyphname = Y;
lastChange = "2023-03-28 09:22:00 +0000";
layers = (
{
layerId = m01;
shapes = (
{
closed = 1;
nodes = (
(279,544,o),
(317,574,o),
(356,601,c),
(392,626,o),
(428,649,o),
(466,670,c),
(480,678,o),
(500,681,o),
(515,678,c),
(529,675,o),
(547,663,o),
(552,650,c),
(560,632,o),
(544,619,o),
(528,610,c),
(488,587,o),
(447,565,o),
(407,541,c),
(367,517,o),
(328,491,o),
(289,467,c),
(272,456,o),
(269,444,o),
(272,424,c),
(287,332,o),
(276,242,o),
(255,152,c),
(249,125,o),
(245,97,o),
(239,70,c),
(226,19,o),
(209,5,o),
(175,16,c),
(137,29,o),
(128,52,o),
(142,98,c),
(167,173,o),
(190,250,o),
(187,330,c),
(186,370,o),
(179,410,o),
(172,449,c),
(170,458,o),
(161,467,o),
(153,475,c),
(122,505,o),
(89,534,o),
(58,563,c),
(51,569,o),
(44,576,o),
(38,583,c),
(15,616,o),
(14,646,o),
(35,662,c),
(57,678,o),
(96,668,o),
(118,642,c),
(141,613,o),
(165,584,o),
(189,557,c),
(203,542,o),
(218,529,o),
(236,512,c)
);
}
);
width = 414;
}
);
unicode = 89;
},
{
glyphname = aacute;
lastChange = "2023-03-28 09:22:01 +0000";
layers = (
{
layerId = m01;
shapes = (
{
closed = 1;
nodes = (
(114,120,o),
(117,118,o),
(120,115,c),
(142,140,o),
(165,164,o),
(185,191,c),
(190,197,o),
(183,212,o),
(181,223,c),
(170,220,o),
(156,219,o),
(150,212,c),
(129,186,o),
(115,156,o),
(111,122,c)
);
},
{
closed = 1;
nodes = (
(292,128,o),
(293,126,o),
(295,126,c),
(310,122,o),
(330,135,o),
(339,113,c),
(348,92,o),
(334,78,o),
(322,63,c),
(296,33,o),
(268,25,o),
(231,40,c),
(217,45,o),
(204,54,o),
(188,63,c),
(173,50,o),
(159,37,o),
(143,26,c),
(94,-8,o),
(30,19,o),
(22,76,c),
(11,168,o),
(47,243,o),
(116,302,c),
(144,326,o),
(178,328,o),
(211,305,c),
(237,286,o),
(265,270,o),
(290,249,c),
(309,235,o),
(313,214,o),
(306,191,c),
(299,171,o),
(293,150,o),
(287,131,c)
);
},
{
closed = 1;
nodes = (
(391,533,o),
(383,514,o),
(372,498,c),
(345,462,o),
(317,428,o),
(288,393,c),
(274,377,o),
(259,359,o),
(233,368,c),
(211,375,o),
(196,395,o),
(196,422,c),
(196,433,o),
(200,447,o),
(208,454,c),
(243,489,o),
(280,522,o),
(318,555,c),
(329,564,o),
(344,571,o),
(358,577,c),
(384,588,o),
(396,579,o),
(396,542,c)
);
}
);
width = 396;
}
);
unicode = 225;
},
{
glyphname = ecaron;
lastChange = "2023-03-28 09:19:07 +0000";
layers = (
{
layerId = m01;
shapes = (
{
closed = 1;
nodes = (
(168,263,o),
(139,235,o),
(131,189,c),
(188,195,o),
(214,218,o),
(212,265,c)
);
},
{
closed = 1;
nodes = (
(135,73,o),
(155,78,o),
(174,83,c),
(202,88,o),
(228,97,o),
(256,101,c),
(271,104,o),
(291,105,o),
(294,85,c),
(296,74,o),
(286,59,o),
(277,51,c),
(244,21,o),
(203,4,o),
(160,-2,c),
(86,-12,o),
(-10,77,o),
(29,160,c),
(54,213,o),
(84,261,o),
(124,302,c),
(151,330,o),
(185,344,o),
(226,328,c),
(264,313,o),
(287,287,o),
(292,246,c),
(297,212,o),
(285,182,o),
(257,164,c),
(223,142,o),
(184,125,o),
(147,107,c),
(138,102,o),
(127,100,o),
(110,95,c)
);
},
{
closed = 1;
nodes = (
(240,561,o),
(278,609,o),
(338,614,c),
(355,590,o),
(346,573,o),
(333,556,c),
(301,516,o),
(270,476,o),
(237,437,c),
(207,400,o),
(154,403,o),
(131,443,c),
(114,474,o),
(101,508,o),
(88,541,c),
(81,557,o),
(80,576,o),
(99,586,c),
(117,595,o),
(135,594,o),
(150,577,c),
(162,564,o),
(174,550,o),
(189,532,c)
);
}
);
width = 367;
}
);
unicode = 283;
},
{
glyphname = g;
lastChange = "2023-03-28 09:20:35 +0000";
layers = (
{
layerId = m01;
shapes = (
{
closed = 1;
nodes = (
(200,138,o),
(214,160,o),
(220,188,c),
(223,201,o),
(226,215,o),
(210,218,c),
(202,219,o),
(187,211,o),
(185,205,c),
(176,179,o),
(171,153,o),
(164,127,c)
);
},
{
closed = 1;
nodes = (
(84,-262,o),
(88,-260,o),
(105,-211,c),
(111,-195,o),
(116,-178,o),
(121,-161,c),
(118,-159,o),
(115,-157,o),
(111,-155,c),
(83,-185,o),
(55,-214,o),
(22,-248,c)
);
},
{
closed = 1;
nodes = (
(160,32,o),
(151,34,o),
(142,35,c),
(111,42,o),
(94,62,o),
(88,92,c),
(70,174,o),
(103,241,o),
(151,303,c),
(165,321,o),
(186,328,o),
(209,316,c),
(224,308,o),
(240,301,o),
(257,293,c),
(261,296,o),
(265,301,o),
(271,303,c),
(285,305,o),
(301,311,o),
(314,307,c),
(332,301,o),
(337,281,o),
(333,264,c),
(326,232,o),
(316,202,o),
(305,171,c),
(294,138,o),
(281,105,o),
(272,71,c),
(372,131,o),
(463,201,o),
(570,245,c),
(573,246,o),
(578,244,o),
(590,241,c),
(562,218,o),
(539,198,o),
(516,179,c),
(433,113,o),
(350,49,o),
(269,-18,c),
(254,-30,o),
(242,-49,o),
(236,-66,c),
(221,-117,o),
(210,-169,o),
(196,-219,c),
(190,-240,o),
(183,-261,o),
(174,-280,c),
(154,-322,o),
(124,-339,o),
(81,-327,c),
(43,-317,o),
(6,-310,o),
(-34,-311,c),
(-47,-311,o),
(-63,-301,o),
(-74,-292,c),
(-95,-273,o),
(-94,-259,o),
(-75,-236,c),
(-19,-168,o),
(49,-114,o),
(116,-59,c),
(158,-24,o),
(161,-21,o),
(169,30,c)
);
}
);
width = 610;
}
);
unicode = 103;
},
{
glyphname = h;
lastChange = "2023-03-28 09:19:07 +0000";
layers = (
{
layerId = m01;
shapes = (
{
closed = 1;
nodes = (
(226,312,o),
(246,322,o),
(266,322,c),
(312,324,o),
(337,294,o),
(328,248,c),
(323,219,o),
(312,191,o),
(304,163,c),
(300,152,o),
(298,140,o),
(295,127,c),
(352,127,l),
(368,104,o),
(363,84,o),
(347,66,c),
(333,50,o),
(317,35,o),
(300,22,c),
(276,5,o),
(250,4,o),
(226,22,c),
(203,38,o),
(189,59,o),
(193,88,c),
(197,117,o),
(203,146,o),
(202,178,c),
(192,167,o),
(180,158,o),
(172,146,c),
(152,113,o),
(132,79,o),
(114,45,c),
(98,17,o),
(91,13,o),
(58,19,c),
(31,24,o),
(21,34,o),
(20,63,c),
(19,77,o),
(23,93,o),
(28,107,c),
(62,194,o),
(100,279,o),
(129,367,c),
(159,455,o),
(180,546,o),
(204,636,c),
(213,670,o),
(226,683,o),
(252,679,c),
(278,675,o),
(297,651,o),
(291,620,c),
(283,576,o),
(271,533,o),
(258,490,c),
(242,438,o),
(225,387,o),
(208,335,c),
(206,326,o),
(204,317,o),
(201,305,c)
);
}
);
width = 382;
}
);
unicode = 104;
},
{
glyphname = idotbelow;
lastChange = "2023-03-28 09:19:07 +0000";
layers = (
{
layerId = m01;
shapes = (
{
closed = 1;
nodes = (
(154,116,o),
(157,113,o),
(161,112,c),
(196,96,o),
(200,81,o),
(176,53,c),
(168,43,o),
(156,34,o),
(145,26,c),
(125,12,o),
(104,2,o),
(81,16,c),
(51,34,o),
(33,67,o),
(42,94,c),
(62,156,o),
(85,217,o),
(108,278,c),
(112,289,o),
(120,299,o),
(128,309,c),
(141,328,o),
(161,331,o),
(182,324,c),
(199,317,o),
(209,289,o),
(201,268,c),
(191,241,o),
(178,217,o),
(168,191,c),
(160,168,o),
(154,144,o),
(146,121,c)
);
},
{
closed = 1;
nodes = (
(207,561,o),
(249,526,o),
(247,500,c),
(244,474,o),
(210,441,o),
(187,443,c),
(166,445,o),
(129,496,o),
(130,522,c),
(131,546,o),
(148,564,o),
(171,563,c)
);
},
{
closed = 1;
nodes = (
(49,-189,o),
(20,-164,o),
(20,-137,c),
(19,-114,o),
(37,-99,o),
(67,-98,c),
(103,-98,o),
(128,-119,o),
(127,-148,c),
(127,-173,o),
(109,-188,o),
(81,-188,c)
);
}
);
width = 267;
}
);
unicode = 7883;
},
{
glyphname = n;
lastChange = "2023-03-28 09:19:07 +0000";
layers = (
{
layerId = m01;
shapes = (
{
closed = 1;
nodes = (
(229,294,o),
(251,303,o),
(270,300,c),
(298,296,o),
(316,261,o),
(311,231,c),
(309,216,o),
(306,200,o),
(302,185,c),
(298,171,o),
(293,157,o),
(288,142,c),
(348,129,o),
(354,109,o),
(315,62,c),
(285,26,o),
(255,19,o),
(217,38,c),
(200,47,o),
(190,59,o),
(187,77,c),
(185,93,o),
(184,110,o),
(182,132,c),
(154,110,o),
(133,87,o),
(120,57,c),
(108,28,o),
(83,18,o),
(57,30,c),
(30,41,o),
(13,74,o),
(23,99,c),
(52,164,o),
(81,229,o),
(111,294,c),
(131,336,o),
(169,338,o),
(197,300,c),
(199,296,o),
(202,292,o),
(203,290,c)
);
}
);
width = 360;
}
);
unicode = 110;
},
{
glyphname = ohorn;
lastChange = "2023-03-28 09:20:31 +0000";
layers = (
{
layerId = m01;
shapes = (
{
closed = 1;
nodes = (
(175,147,o),
(231,198,o),
(244,288,c),
(188,287,o),
(152,260,o),
(126,225,c),
(101,189,o),
(87,146,o),
(108,91,c)
);
},
{
closed = 1;
nodes = (
(337,327,o),
(351,351,o),
(336,386,c),
(333,393,o),
(330,402,o),
(331,408,c),
(335,421,o),
(340,437,o),
(349,442,c),
(359,447,o),
(378,444,o),
(387,437,c),
(423,411,o),
(439,355,o),
(419,315,c),
(396,272,o),
(364,237,o),
(304,237,c),
(290,177,o),
(253,129,o),
(213,84,c),
(194,63,o),
(171,43,o),
(146,28,c),
(105,4,o),
(58,21,o),
(38,65,c),
(22,100,o),
(15,137,o),
(23,174,c),
(31,207,o),
(43,240,o),
(57,271,c),
(73,308,o),
(102,334,o),
(143,341,c),
(146,342,o),
(150,342,o),
(152,344,c),
(215,375,o),
(267,367,o),
(306,301,c)
);
}
);
width = 388;
}
);
unicode = 417;
},
{
glyphname = r;
lastChange = "2023-03-28 09:19:14 +0000";
layers = (
{
layerId = m01;
shapes = (
{
closed = 1;
nodes = (
(129,250,o),
(105,251,o),
(81,247,c),
(44,242,o),
(16,279,o),
(20,308,c),
(21,318,o),
(31,334,o),
(38,335,c),
(84,336,o),
(134,345,o),
(175,330,c),
(220,314,o),
(264,298,o),
(310,287,c),
(322,284,o),
(334,279,o),
(345,274,c),
(377,258,o),
(379,227,o),
(348,210,c),
(330,200,o),
(307,192,o),
(287,192,c),
(259,193,o),
(246,180,o),
(237,159,c),
(222,127,o),
(208,94,o),
(195,61,c),
(178,21,o),
(163,12,o),
(133,23,c),
(98,36,o),
(81,71,o),
(95,105,c),
(103,122,o),
(113,138,o),
(123,154,c),
(147,192,o),
(147,192,o),
(157,252,c)
);
}
);
width = 390;
}
);
unicode = 114;
},
{
glyphname = s;
lastChange = "2023-03-28 09:19:07 +0000";
layers = (
{
layerId = m01;
shapes = (
{
closed = 1;
nodes = (
(152,208,o),
(169,200,o),
(184,189,c),
(225,158,o),
(228,113,o),
(190,78,c),
(175,63,o),
(157,48,o),
(138,40,c),
(120,32,o),
(99,28,o),
(80,29,c),
(67,31,o),
(50,42,o),
(43,54,c),
(34,71,o),
(52,81,o),
(64,90,c),
(78,100,o),
(92,109,o),
(112,123,c),
(95,139,o),
(81,152,o),
(67,165,c),
(54,178,o),
(39,190,o),
(28,204,c),
(16,223,o),
(17,244,o),
(35,259,c),
(66,285,o),
(97,311,o),
(130,334,c),
(160,354,o),
(186,348,o),
(207,319,c),
(226,294,o),
(220,273,o),
(192,259,c),
(176,250,o),
(159,243,o),
(142,234,c),
(139,232,o),
(137,227,o),
(133,220,c)
);
}
);
width = 238;
}
);
unicode = 115;
},
{
glyphname = uhorn;
lastChange = "2023-03-28 09:20:29 +0000";
layers = (
{
layerId = m01;
shapes = (
{
closed = 1;
nodes = (
(191,212,o),
(208,232,o),
(223,255,c),
(242,284,o),
(264,294,o),
(287,281,c),
(319,263,o),
(327,238,o),
(312,206,c),
(302,185,o),
(291,165,o),
(281,143,c),
(280,140,o),
(280,135,o),
(280,129,c),
(298,121,o),
(326,127,o),
(329,96,c),
(332,67,o),
(310,56,o),
(290,44,c),
(245,14,o),
(216,17,o),
(172,59,c),
(161,50,o),
(149,40,o),
(137,31,c),
(110,11,o),
(69,8,o),
(46,26,c),
(20,47,o),
(15,77,o),
(23,107,c),
(38,159,o),
(55,210,o),
(72,262,c),
(77,278,o),
(89,289,o),
(107,287,c),
(129,284,o),
(153,281,o),
(161,257,c),
(168,237,o),
(168,215,o),
(172,187,c)
);
},
{
closed = 1;
nodes = (
(467,337,o),
(466,328,o),
(462,320,c),
(441,274,o),
(402,254,o),
(355,246,c),
(334,242,o),
(323,257,o),
(331,277,c),
(336,290,o),
(345,301,o),
(354,311,c),
(370,329,o),
(380,348,o),
(376,374,c),
(374,387,o),
(381,406,o),
(391,414,c),
(397,419,o),
(417,412,o),
(429,406,c),
(452,394,o),
(464,372,o),
(470,346,c)
);
}
);
width = 460;
}
);
unicode = 432;
},
{
glyphname = umacron;
lastChange = "2023-03-28 09:19:07 +0000";
layers = (
{
layerId = m01;
shapes = (
{
closed = 1;
nodes = (
(167,457,o),
(203,457,o),
(240,457,c),
(260,457,o),
(274,448,o),
(276,428,c),
(278,407,o),
(267,396,o),
(247,392,c),
(214,385,o),
(181,376,o),
(148,370,c),
(135,368,o),
(120,371,o),
(107,376,c),
(87,385,o),
(73,414,o),
(77,434,c),
(80,449,o),
(105,463,o),
(130,457,c)
);
},
{
closed = 1;
nodes = (
(290,130,o),
(282,130,o),
(267,130,c),
(275,152,o),
(282,169,o),
(286,187,c),
(290,202,o),
(294,219,o),
(289,232,c),
(282,252,o),
(267,269,o),
(242,271,c),
(218,273,o),
(204,260,o),
(193,241,c),
(176,212,o),
(160,182,o),
(130,160,c),
(133,179,o),
(137,196,o),
(138,212,c),
(139,247,o),
(104,274,o),
(72,261,c),
(58,256,o),
(47,246,o),
(36,235,c),
(20,99,l),
(57,12,o),
(80,9,o),
(171,74,c),
(180,64,o),
(188,52,o),
(198,43,c),
(215,29,o),
(234,16,o),
(257,24,c),
(290,35,o),
(312,60,o),
(326,90,c),
(337,113,o),
(325,128,o),
(299,130,c)
);
}
);
width = 350;
}
);
unicode = 363;
},
{
glyphname = z;
lastChange = "2023-03-28 09:19:07 +0000";
layers = (
{
layerId = m01;
shapes = (
{
closed = 1;
nodes = (
(174,224,o),
(152,227,o),
(132,234,c),
(117,239,o),
(103,247,o),
(93,259,c),
(87,266,o),
(84,283,o),
(89,292,c),
(93,301,o),
(107,309,o),
(117,311,c),
(132,313,o),
(148,306,o),
(164,308,c),
(188,310,o),
(213,313,o),
(236,321,c),
(273,334,o),
(296,332,o),
(316,308,c),
(332,288,o),
(330,260,o),
(313,230,c),
(290,191,o),
(268,152,o),
(242,108,c),
(262,107,o),
(278,107,o),
(294,105,c),
(315,103,o),
(335,98,o),
(342,74,c),
(352,42,o),
(327,13,o),
(290,17,c),
(226,24,o),
(163,20,o),
(102,-1,c),
(76,-10,o),
(56,0,o),
(39,18,c),
(10,47,o),
(14,68,o),
(51,85,c),
(61,90,o),
(71,93,o),
(82,95,c),
(147,111,o),
(176,159,o),
(203,218,c)
);
}
);
width = 364;
}
);
unicode = 122;
},
{
glyphname = "Che-cy";
lastChange = "2023-03-28 09:19:07 +0000";
layers = (
{
layerId = m01;
shapes = (
{
closed = 1;
nodes = (
(255,-8,o),
(249,14,o),
(248,36,c),
(246,95,o),
(246,152,o),
(246,210,c),
(246,236,o),
(249,263,o),
(250,295,c),
(234,287,o),
(224,282,o),
(214,276,c),
(145,231,o),
(41,260,o),
(25,361,c),
(18,395,o),
(20,430,o),
(23,463,c),
(26,496,o),
(36,528,o),
(42,561,c),
(46,583,o),
(60,588,o),
(78,587,c),
(97,586,o),
(110,571,o),
(109,551,c),
(108,506,o),
(105,461,o),
(105,415,c),
(104,400,o),
(106,384,o),
(112,370,c),
(123,337,o),
(151,327,o),
(180,347,c),
(205,364,o),
(228,384,o),
(249,406,c),
(258,415,o),
(264,431,o),
(264,443,c),
(266,516,o),
(279,589,o),
(264,663,c),
(259,686,o),
(268,696,o),
(293,705,c),
(313,712,o),
(339,707,o),
(347,689,c),
(354,675,o),
(359,658,o),
(358,642,c),
(349,503,o),
(339,364,o),
(329,224,c),
(326,167,o),
(321,109,o),
(315,51,c),
(313,26,o),
(311,0,o),
(285,-15,c)
);
}
);
width = 378;
}
);
unicode = 1063;
},
{
glyphname = "zhe-cy";
lastChange = "2023-03-28 09:19:07 +0000";
layers = (
{
layerId = m01;
shapes = (
{
closed = 1;
nodes = (
(269,256,o),
(271,267,o),
(272,277,c),
(274,323,o),
(274,368,o),
(276,414,c),
(277,430,o),
(278,447,o),
(282,463,c),
(290,488,o),
(318,493,o),
(334,472,c),
(343,460,o),
(348,442,o),
(349,427,c),
(351,381,o),
(350,336,o),
(351,290,c),
(351,280,o),
(352,269,o),
(353,251,c),
(369,262,o),
(381,268,o),
(391,276,c),
(418,303,o),
(445,331,o),
(472,359,c),
(492,380,o),
(512,387,o),
(525,377,c),
(535,369,o),
(538,341,o),
(528,323,c),
(515,300,o),
(498,280,o),
(480,254,c),
(502,230,o),
(526,204,o),
(549,177,c),
(559,165,o),
(568,151,o),
(577,137,c),
(580,133,o),
(582,127,o),
(583,122,c),
(586,104,o),
(590,81,o),
(571,74,c),
(560,70,o),
(539,80,o),
(528,89,c),
(494,115,o),
(463,145,o),
(430,172,c),
(416,184,o),
(402,189,o),
(381,178,c),
(357,166,o),
(344,152,o),
(349,124,c),
(352,105,o),
(352,85,o),
(354,66,c),
(358,31,o),
(348,16,o),
(319,13,c),
(291,10,o),
(265,27,o),
(262,54,c),
(259,69,o),
(261,85,o),
(262,100,c),
(263,117,o),
(264,135,o),
(265,152,c),
(245,160,o),
(229,168,o),
(213,175,c),
(182,188,o),
(179,187,o),
(160,158,c),
(141,129,o),
(124,99,o),
(105,70,c),
(96,56,o),
(86,42,o),
(74,31,c),
(63,21,o),
(49,14,o),
(33,25,c),
(19,36,o),
(17,50,o),
(22,66,c),
(24,74,o),
(27,82,o),
(31,89,c),
(49,121,o),
(67,154,o),
(85,187,c),
(95,205,o),
(105,223,o),
(114,241,c),
(123,260,o),
(123,277,o),
(114,297,c),
(104,320,o),
(99,344,o),
(93,368,c),
(89,386,o),
(92,401,o),
(109,411,c),
(125,420,o),
(140,419,o),
(155,409,c),
(179,394,o),
(186,371,o),
(190,346,c),
(196,312,o),
(210,283,o),
(235,259,c),
(242,252,o),
(253,248,o),
(266,240,c)
);
}
);
width = 606;
}
);
unicode = 1078;
},
{
glyphname = "en-cy";
lastChange = "2023-03-28 09:19:07 +0000";
layers = (
{
layerId = m01;
shapes = (
{
closed = 1;
nodes = (
(23,262,o),
(26,316,o),
(29,370,c),
(30,398,o),
(39,412,o),
(57,413,c),
(75,415,o),
(99,399,o),
(103,379,c),
(107,357,o),
(107,335,o),
(108,313,c),
(108,277,o),
(109,275,o),
(145,274,c),
(161,273,o),
(251,289,o),
(267,285,c),
(280,282,o),
(296,257,o),
(308,249,c),
(301,238,o),
(267,221,o),
(257,216,c),
(234,204,o),
(159,199,o),
(134,191,c),
(105,182,o),
(104,182,o),
(104,152,c),
(104,139,o),
(105,127,o),
(104,115,c),
(103,82,o),
(91,65,o),
(71,65,c),
(52,65,o),
(22,92,o),
(21,113,c),
(19,145,o),
(21,177,o),
(21,209,c)
);
},
{
closed = 1;
nodes = (
(237,270,o),
(232,324,o),
(227,379,c),
(226,395,o),
(227,410,o),
(243,418,c),
(258,426,o),
(273,431,o),
(290,420,c),
(308,407,o),
(327,398,o),
(325,370,c),
(320,302,o),
(319,234,o),
(313,167,c),
(310,134,o),
(306,100,o),
(285,73,c),
(280,65,o),
(268,56,o),
(260,57,c),
(252,58,o),
(241,69,o),
(238,78,c),
(234,94,o),
(234,111,o),
(234,127,c),
(234,156,o),
(234,185,o),
(234,214,c),
(237,215,o),
(239,215,o),
(242,215,c)
);
}
);
width = 345;
}
);
unicode = 1085;
},
{
glyphname = "u-cy";
lastChange = "2023-03-28 09:22:24 +0000";
layers = (
{
layerId = m01;
shapes = (
{
closed = 1;
nodes = (
(112,86,o),
(100,118,o),
(90,154,c),
(78,204,o),
(61,254,o),
(48,304,c),
(43,322,o),
(39,341,o),
(61,352,c),
(80,362,o),
(98,360,o),
(111,345,c),
(121,332,o),
(130,319,o),
(136,306,c),
(145,285,o),
(149,264,o),
(157,244,c),
(166,220,o),
(176,196,o),
(187,172,c),
(189,166,o),
(194,163,o),
(202,153,c),
(214,185,o),
(226,213,o),
(237,242,c),
(253,285,o),
(267,329,o),
(283,372,c),
(298,410,o),
(321,424,o),
(348,413,c),
(378,399,o),
(389,374,o),
(373,339,c),
(324,230,o),
(275,119,o),
(223,12,c),
(190,-53,o),
(151,-114,o),
(113,-176,c),
(103,-193,o),
(91,-209,o),
(78,-224,c),
(46,-256,o),
(-5,-257,o),
(-35,-228,c),
(-54,-211,o),
(-54,-191,o),
(-33,-184,c),
(22,-167,o),
(49,-120,o),
(77,-76,c),
(107,-30,o),
(131,19,o),
(164,74,c)
);
}
);
width = 395;
}
);
unicode = 1091;
},
{
glyphname = "ereversed-cy";
lastChange = "2023-03-28 09:22:18 +0000";
layers = (
{
layerId = m01;
shapes = (
{
closed = 1;
nodes = (
(223,194,o),
(175,184,o),
(128,166,c),
(114,161,o),
(97,161,o),
(82,163,c),
(64,164,o),
(57,180,o),
(56,197,c),
(54,212,o),
(63,221,o),
(77,226,c),
(120,241,o),
(163,252,o),
(209,250,c),
(231,249,o),
(253,250,o),
(274,250,c),
(272,304,o),
(241,350,o),
(190,364,c),
(116,385,o),
(78,341,o),
(54,279,c),
(19,303,o),
(11,327,o),
(28,361,c),
(51,410,o),
(109,441,o),
(158,437,c),
(282,425,o),
(353,318,o),
(352,215,c),
(351,146,o),
(331,85,o),
(278,37,c),
(237,-1,o),
(151,-6,o),
(101,43,c),
(91,54,o),
(75,67,o),
(88,84,c),
(100,100,o),
(116,91,o),
(130,83,c),
(186,51,o),
(226,63,o),
(254,121,c),
(264,142,o),
(270,163,o),
(279,187,c)
);
}
);
width = 419;
}
);
unicode = 1101;
},
{
glyphname = "ya-cy";
lastChange = "2023-03-28 09:22:33 +0000";
layers = (
{
layerId = m01;
shapes = (
{
closed = 1;
nodes = (
(160,247,o),
(186,257,o),
(211,269,c),
(234,279,o),
(242,298,o),
(241,320,c),
(241,331,o),
(239,342,o),
(237,352,c),
(234,367,o),
(223,372,o),
(208,366,c),
(178,351,o),
(153,330,o),
(137,301,c),
(131,289,o),
(128,273,o),
(123,255,c)
);
},
{
closed = 1;
nodes = (
(205,144,o),
(186,129,o),
(167,113,c),
(128,80,o),
(90,47,o),
(51,15,c),
(44,9,o),
(34,4,o),
(25,3,c),
(18,1,o),
(6,3,o),
(3,7,c),
(0,13,o),
(-2,26,o),
(2,32,c),
(17,51,o),
(33,68,o),
(49,86,c),
(78,118,o),
(108,149,o),
(141,184,c),
(128,188,o),
(119,191,o),
(109,195,c),
(72,208,o),
(51,235,o),
(53,272,c),
(54,289,o),
(56,307,o),
(64,320,c),
(91,371,o),
(134,406,o),
(186,428,c),
(213,440,o),
(233,433,o),
(250,408,c),
(258,395,o),
(267,392,o),
(282,390,c),
(313,387,o),
(325,374,o),
(328,346,c),
(332,319,o),
(330,293,o),
(321,266,c),
(313,242,o),
(313,214,o),
(313,189,c),
(312,151,o),
(314,114,o),
(316,76,c),
(317,57,o),
(314,40,o),
(297,30,c),
(266,12,o),
(230,32,o),
(228,67,c),
(228,78,o),
(231,88,o),
(232,98,c),
(233,117,o),
(234,136,o),
(235,154,c),
(232,156,o),
(228,158,o),
(225,160,c)
);
}
);
width = 393;
}
);
unicode = 1103;
},
{
glyphname = u28780;
lastChange = "2023-03-28 09:02:54 +0000";
layers = (
{
layerId = m01;
shapes = (
{
closed = 1;
nodes = (
(339,492,o),
(339,492,o),
(320,489,c),
(323,480,o),
(327,470,o),
(329,461,c)
);
},
{
closed = 1;
nodes = (
(456,411,l),
(413,407,o),
(410,403,o),
(396,378,c),
(415,378,o),
(434,377,o),
(454,373,c)
);
},
{
closed = 1;
nodes = (
(228,-70,o),
(240,-55,o),
(251,-36,c),
(261,-20,o),
(268,-4,o),
(282,14,c),
(252,9,o),
(230,7,o),
(207,1,c),
(188,1,o),
(172,6,o),
(164,22,c),
(155,42,o),
(161,60,o),
(184,62,c),
(197,62,o),
(209,62,o),
(222,61,c),
(235,64,o),
(248,63,o),
(257,66,c),
(306,77,o),
(319,93,o),
(324,148,c),
(299,152,o),
(270,153,o),
(265,185,c),
(259,204,o),
(266,213,o),
(298,232,c),
(287,244,o),
(271,258,o),
(265,274,c),
(256,290,o),
(260,313,o),
(258,332,c),
(248,332,o),
(238,333,o),
(232,336,c),
(216,340,o),
(201,356,o),
(201,372,c),
(199,388,o),
(209,404,o),
(225,409,c),
(229,413,o),
(229,413,o),
(229,413,c),
(267,428,o),
(270,428,o),
(269,472,c),
(256,475,o),
(243,480,o),
(231,486,c),
(218,493,o),
(209,503,o),
(216,519,c),
(222,524,o),
(236,537,o),
(242,537,c),
(274,530,o),
(293,548,o),
(317,557,c),
(330,563,o),
(339,572,o),
(352,575,c),
(375,583,o),
(409,560,o),
(402,538,c),
(395,512,o),
(406,490,o),
(402,464,c),
(412,464,o),
(421,463,o),
(429,466,c),
(435,466,o),
(442,469,o),
(445,469,c),
(499,477,o),
(533,447,o),
(525,393,c),
(517,342,o),
(522,294,o),
(523,246,c),
(526,243,o),
(526,240,o),
(525,233,c),
(527,201,o),
(521,195,o),
(496,196,c),
(470,194,o),
(457,206,o),
(458,235,c),
(459,264,o),
(457,293,o),
(459,328,c),
(445,322,o),
(436,319,o),
(429,316,c),
(416,311,o),
(407,304,o),
(397,301,c),
(358,294,o),
(337,310,o),
(325,352,c),
(323,295,l),
(326,295,o),
(332,294,o),
(342,290,c),
(348,290,o),
(358,294,o),
(368,289,c),
(399,288,o),
(406,279,o),
(405,244,c),
(411,240,o),
(420,236,o),
(423,230,c),
(429,223,o),
(436,214,o),
(432,204,c),
(428,198,o),
(419,188,o),
(412,186,c),
(396,180,o),
(377,181,o),
(360,177,c),
(370,165,o),
(379,152,o),
(388,141,c),
(398,129,o),
(410,129,o),
(426,131,c),
(436,134,o),
(449,136,o),
(458,136,c),
(478,132,o),
(486,113,o),
(486,100,c),
(485,84,o),
(472,78,o),
(460,72,c),
(434,67,o),
(407,58,o),
(382,53,c),
(363,46,o),
(353,38,o),
(343,22,c),
(329,-10,o),
(309,-41,o),
(292,-69,c),
(284,-82,o),
(271,-91,o),
(262,-100,c),
(245,-113,o),
(232,-108,o),
(214,-89,c)
);
},
{
closed = 1;
nodes = (
(771,298,o),
(768,295,o),
(741,286,c),
(741,260,o),
(737,235,o),
(733,209,c),
(749,212,o),
(762,218,o),
(768,221,c),
(779,243,o),
(786,263,o),
(793,284,c)
);
},
{
closed = 1;
nodes = (
(797,207,o),
(797,204,o),
(796,201,c),
(805,162,o),
(791,143,o),
(753,149,c),
(731,152,o),
(714,140,o),
(695,131,c),
(656,116,o),
(644,123,o),
(626,165,c),
(639,178,o),
(649,187,o),
(662,199,c),
(679,214,o),
(683,234,o),
(676,253,c),
(638,252,o),
(635,245,o),
(624,213,c),
(623,200,o),
(617,188,o),
(613,176,c),
(602,138,o),
(624,98,o),
(668,97,c),
(687,96,o),
(703,95,o),
(723,98,c),
(771,103,o),
(822,98,o),
(867,116,c),
(883,121,o),
(899,128,o),
(912,136,c),
(926,143,o),
(939,151,o),
(951,135,c),
(960,125,o),
(956,110,o),
(943,97,c),
(917,69,o),
(880,54,o),
(842,50,c),
(794,44,o),
(746,37,o),
(698,35,c),
(666,33,o),
(631,44,o),
(599,51,c),
(580,55,o),
(565,71,o),
(560,91,c),
(548,133,o),
(555,175,o),
(567,215,c),
(570,225,o),
(573,234,o),
(574,244,c),
(572,270,o),
(585,282,o),
(604,288,c),
(640,303,o),
(675,318,o),
(711,328,c),
(737,337,o),
(764,346,o),
(789,352,c),
(831,356,o),
(865,330,o),
(861,292,c),
(860,279,o),
(853,269,o),
(847,261,c),
(839,251,o),
(833,241,o),
(823,235,c),
(816,226,o),
(807,220,o),
(794,210,c)
);
},
{
closed = 1;
nodes = (
(739,468,o),
(739,471,o),
(739,474,c),
(700,476,o),
(669,465,o),
(639,437,c),
(654,426,o),
(667,417,o),
(686,406,c),
(705,425,o),
(722,447,o),
(742,465,c)
);
},
{
closed = 1;
nodes = (
(606,495,o),
(631,507,o),
(654,516,c),
(696,531,o),
(741,535,o),
(786,537,c),
(808,540,o),
(824,526,o),
(832,510,c),
(839,494,o),
(831,478,o),
(822,465,c),
(792,435,o),
(759,407,o),
(723,386,c),
(713,376,o),
(703,371,o),
(693,361,c),
(684,349,o),
(673,346,o),
(661,350,c),
(620,357,o),
(592,380,o),
(577,420,c),
(572,442,o),
(575,449,o),
(597,454,c),
(600,457,o),
(604,457,o),
(610,460,c)
);
},
{
closed = 1;
nodes = (
(239,620,o),
(235,611,o),
(232,601,c),
(193,522,o),
(147,451,o),
(81,392,c),
(70,383,o),
(54,374,o),
(38,368,c),
(35,365,o),
(25,368,o),
(22,372,c),
(19,372,o),
(19,381,o),
(22,384,c),
(26,394,o),
(33,404,o),
(39,413,c),
(93,472,o),
(140,537,o),
(177,610,c),
(185,622,o),
(194,634,o),
(208,647,c),
(211,653,o),
(224,652,o),
(230,652,c),
(237,649,o),
(239,639,o),
(242,633,c)
);
},
{
closed = 1;
nodes = (
(545,507,o),
(542,507,o),
(538,510,c),
(498,544,o),
(448,562,o),
(417,605,c),
(405,617,o),
(395,630,o),
(387,644,c),
(377,660,o),
(385,673,o),
(401,672,c),
(410,675,o),
(420,672,o),
(428,664,c),
(435,661,o),
(441,655,o),
(444,648,c),
(475,612,o),
(510,582,o),
(556,574,c),
(566,573,o),
(579,567,o),
(585,560,c),
(592,551,o),
(594,537,o),
(587,525,c),
(580,509,o),
(564,507,o),
(545,507,c)
);
},
{
closed = 1;
nodes = (
(229,170,o),
(209,155,o),
(191,161,c),
(175,169,o),
(162,178,o),
(160,194,c),
(148,240,o),
(141,285,o),
(133,329,c),
(130,343,o),
(130,356,o),
(147,361,c),
(160,371,o),
(172,363,o),
(178,354,c),
(187,344,o),
(194,334,o),
(196,324,c),
(205,295,o),
(210,263,o),
(215,235,c),
(222,218,o),
(227,205,o),
(230,192,c)
);
},
{
closed = 1;
nodes = (
(406,14,o),
(410,14,o),
(413,13,c),
(444,2,o),
(473,-5,o),
(505,-13,c),
(524,-19,o),
(535,-36,o),
(538,-52,c),
(538,-71,o),
(530,-84,o),
(511,-83,c),
(502,-86,o),
(492,-82,o),
(486,-82,c),
(461,-72,o),
(435,-58,o),
(411,-47,c),
(401,-44,o),
(395,-38,o),
(385,-31,c),
(379,-24,o),
(367,-14,o),
(373,-1,c),
(380,8,o),
(394,10,o),
(400,14,c)
);
}
);
width = 976;
}
);
unicode = 165760;
},
{
glyphname = uni495A;
lastChange = "2023-03-28 09:04:57 +0000";
layers = (
{
annotations = (
{
pos = (145.574,915.849);
type = Circle;
width = 30;
}
);
layerId = m01;
shapes = (
{
closed = 1;
nodes = (
(190,252,o),
(167,190,o),
(131,139,c),
(115,118,o),
(100,98,o),
(82,77,c),
(74,66,o),
(61,64,o),
(51,57,c),
(37,54,o),
(26,65,o),
(31,79,c),
(34,86,o),
(41,93,o),
(46,103,c),
(72,155,o),
(101,203,o),
(117,261,c),
(121,279,o),
(121,297,o),
(122,314,c),
(127,342,o),
(121,366,o),
(92,382,c),
(77,390,o),
(66,406,o),
(64,424,c),
(60,445,o),
(65,456,o),
(83,455,c),
(95,458,o),
(113,454,o),
(127,450,c),
(175,420,o),
(194,370,o),
(196,321,c)
);
},
{
closed = 1;
nodes = (
(291,36,o),
(312,17,o),
(311,-8,c),
(310,-26,o),
(289,-39,o),
(271,-38,c),
(244,-38,o),
(224,-15,o),
(224,13,c),
(225,31,o),
(239,38,o),
(262,37,c)
);
},
{
closed = 1;
nodes = (
(463,50,o),
(481,56,o),
(516,41,c),
(524,37,o),
(535,27,o),
(531,14,c),
(530,-4,o),
(516,-11,o),
(503,-11,c),
(482,-7,o),
(461,-6,o),
(451,16,c)
);
},
{
closed = 1;
nodes = (
(395,408,o),
(396,430,o),
(396,433,c),
(396,437,o),
(406,440,o),
(425,443,c),
(456,452,o),
(456,445,o),
(456,442,c),
(455,438,o),
(444,425,o),
(427,418,c)
);
},
{
closed = 1;
nodes = (
(394,367,o),
(394,371,o),
(394,374,c),
(394,378,o),
(409,388,o),
(426,391,c),
(454,399,o),
(454,386,o),
(454,383,c),
(453,379,o),
(438,380,o),
(425,377,c)
);
},
{
closed = 1;
nodes = (
(390,486,o),
(401,492,o),
(419,496,c),
(438,498,o),
(450,498,o),
(449,495,c),
(453,483,o),
(437,484,o),
(422,483,c),
(405,479,o),
(390,480,o),
(390,484,c)
);
},
{
closed = 1;
nodes = (
(985,106,o),
(968,109,o),
(951,97,c),
(922,73,o),
(890,67,o),
(855,57,c),
(805,45,o),
(760,57,o),
(722,90,c),
(637,149,o),
(588,235,o),
(571,336,c),
(554,439,o),
(553,544,o),
(596,644,c),
(600,647,o),
(600,654,o),
(600,656,c),
(604,681,o),
(591,700,o),
(566,701,c),
(555,701,o),
(541,702,o),
(527,695,c),
(467,676,o),
(407,650,o),
(347,631,c),
(326,621,o),
(305,615,o),
(280,620,c),
(267,627,o),
(253,624,o),
(245,610,c),
(237,593,o),
(244,582,o),
(254,569,c),
(264,554,o),
(277,550,o),
(294,553,c),
(312,555,o),
(331,559,o),
(349,565,c),
(390,581,o),
(433,596,o),
(476,613,c),
(483,616,o),
(490,615,o),
(504,619,c),
(513,563,o),
(500,510,o),
(495,458,c),
(488,482,o),
(486,503,o),
(483,528,c),
(477,561,o),
(460,568,o),
(429,569,c),
(390,571,o),
(388,525,o),
(360,515,c),
(356,515,o),
(356,512,o),
(354,508,c),
(354,505,o),
(354,505,o),
(354,501,c),
(354,460,o),
(353,417,o),
(355,376,c),
(357,348,o),
(382,333,o),
(410,342,c),
(432,345,o),
(448,348,o),
(467,354,c),
(474,358,o),
(484,364,o),
(488,375,c),
(493,382,o),
(493,391,o),
(496,398,c),
(496,398,o),
(500,398,o),
(500,398,c),
(503,391,o),
(503,382,o),
(506,371,c),
(506,291,o),
(538,222,o),
(575,154,c),
(598,119,o),
(628,90,o),
(655,60,c),
(684,35,o),
(713,17,o),
(749,6,c),
(831,-26,o),
(909,3,o),
(983,46,c),
(1001,56,o),
(1006,77,o),
(996,91,c)
);
},
{
closed = 1;
nodes = (
(241,400,o),
(241,407,o),
(241,411,c),
(241,414,o),
(253,424,o),
(269,427,c),
(301,437,o),
(301,426,o),
(301,423,c),
(305,419,o),
(290,416,o),
(272,410,c)
);
},
{
closed = 1;
nodes = (
(239,352,o),
(239,348,o),
(239,352,c),
(238,387,o),
(254,376,o),
(271,379,c),
(300,389,o),
(304,396,o),
(299,364,c),
(299,360,o),
(288,367,o),
(271,361,c)
);
},
{
closed = 1;
nodes = (
(236,467,o),
(250,471,o),
(264,474,c),
(282,476,o),
(296,476,o),
(296,473,c),
(299,465,o),
(284,455,o),
(267,452,c),
(250,450,o),
(240,446,o),
(236,464,c)
);
},
{
closed = 1;
nodes = (
(403,223,o),
(428,222,o),
(451,221,c),
(472,225,o),
(487,231,o),
(488,248,c),
(488,262,o),
(474,278,o),
(457,281,c),
(430,282,o),
(405,287,o),
(380,288,c),
(377,305,o),
(377,322,o),
(371,329,c),
(361,337,o),
(344,337,o),
(330,338,c),
(335,377,o),
(340,414,o),
(345,453,c),
(345,463,o),
(346,474,o),
(342,485,c),
(340,505,o),
(329,523,o),
(302,532,c),
(280,536,o),
(257,540,o),
(238,523,c),
(220,510,o),
(209,486,o),
(193,469,c),
(190,466,o),
(193,459,o),
(193,455,c),
(196,415,o),
(201,381,o),
(204,342,c),
(206,321,o),
(220,308,o),
(238,303,c),
(262,302,o),
(283,301,o),
(308,300,c),
(307,297,o),
(303,291,o),
(300,287,c),
(259,232,o),
(219,173,o),
(178,120,c),
(171,109,o),
(164,102,o),
(157,93,c),
(146,82,o),
(149,71,o),
(156,61,c),
(165,49,o),
(179,49,o),
(190,59,c),
(197,62,o),
(201,69,o),
(209,76,c),
(227,97,o),
(245,118,o),
(263,141,c),
(280,130,o),
(297,120,o),
(311,111,c),
(311,108,o),
(311,104,o),
(308,104,c),
(286,81,o),
(289,73,o),
(309,51,c),
(323,38,o),
(333,23,o),
(342,9,c),
(338,-5,o),
(332,-12,o),
(331,-23,c),
(324,-43,o),
(336,-71,o),
(356,-75,c),
(385,-83,o),
(413,-80,o),
(441,-64,c),
(459,-52,o),
(456,-31,o),
(435,-19,c),
(425,-15,o),
(416,-12,o),
(409,-7,c),
(420,9,o),
(430,27,o),
(438,44,c),
(446,68,o),
(443,90,o),
(424,104,c),
(399,116,o),
(396,129,o),
(403,153,c),
(412,189,o),
(391,203,o),
(359,198,c),
(343,194,o),
(328,181,o),
(307,195,c),
(318,209,o),
(330,226,o),
(337,239,c),
(353,236,o),
(364,228,o),
(378,224,c)
);
}
);
width = 931;
}
);
unicode = 18778;
},
{
glyphname = uni521D;
lastChange = "2023-03-28 09:03:24 +0000";
layers = (
{
layerId = m01;
shapes = (
{
closed = 1;
nodes = (
(676,107,o),
(679,115,o),
(688,119,c),
(741,151,o),
(752,206,o),
(764,261,c),
(767,282,o),
(756,288,o),
(727,300,c),
(665,249,o),
(636,169,o),
(571,125,c),
(549,136,o),
(545,146,o),
(556,165,c),
(574,198,o),
(592,231,o),
(610,263,c),
(615,274,o),
(622,285,o),
(633,304,c),
(603,297,o),
(581,288,o),
(560,285,c),
(549,282,o),
(534,282,o),
(524,285,c),
(501,297,o),
(498,325,o),
(519,336,c),
(600,365,o),
(676,401,o),
(764,373,c),
(813,355,o),
(847,307,o),
(836,252,c),
(829,198,o),
(813,146,o),
(774,107,c),
(759,89,o),
(741,78,o),
(716,78,c),
(697,78,o),
(679,82,o),
(670,103,c)
);
},
{
closed = 1;
nodes = (
(215,377,o),
(170,361,o),
(131,331,c),
(120,329,o),
(113,318,o),
(102,313,c),
(84,307,o),
(63,313,o),
(55,329,c),
(45,347,o),
(45,365,o),
(66,377,c),
(94,391,o),
(127,404,o),
(161,416,c),
(179,423,o),
(200,430,o),
(218,438,c),
(243,448,o),
(269,459,o),
(295,474,c),
(309,482,o),
(324,489,o),
(339,495,c),
(364,503,o),
(382,492,o),
(396,471,c),
(407,452,o),
(407,427,o),
(385,412,c),
(339,379,o),
(309,331,o),
(273,288,c),
(254,270,o),
(240,252,o),
(225,234,c),
(175,176,o),
(127,122,o),
(76,67,c),
(69,60,o),
(66,52,o),
(58,49,c),
(51,46,o),
(45,46,o),
(40,49,c),
(33,52,o),
(33,60,o),
(33,67,c),
(37,74,o),
(40,82,o),
(47,89,c),
(88,146,o),
(131,201,o),
(175,261,c),
(204,300,o),
(233,340,o),
(266,383,c),
(261,383,o),
(258,386,o),
(258,391,c)
);
},
{
closed = 1;
nodes = (
(230,136,o),
(230,165,o),
(230,194,c),
(230,224,o),
(240,234,o),
(258,234,c),
(279,234,o),
(291,219,o),
(291,194,c),
(295,154,o),
(295,119,o),
(298,82,c),
(298,71,o),
(302,64,o),
(305,52,c),
(309,42,o),
(313,30,o),
(313,24,c),
(313,-9,o),
(298,-24,o),
(273,-24,c),
(243,-20,o),
(225,-6,o),
(225,24,c),
(225,52,o),
(230,82,o),
(230,110,c),
(230,110,o),
(230,110,o),
(230,110,c)
);
},
{
closed = 1;
nodes = (
(258,644,o),
(248,653,o),
(243,659,c),
(236,670,o),
(230,685,o),
(230,696,c),
(230,703,o),
(248,710,o),
(258,710,c),
(279,710,o),
(302,710,o),
(324,703,c),
(352,696,o),
(360,670,o),
(348,644,c),
(324,601,o),
(287,564,o),
(243,532,c),
(240,528,o),
(225,528,o),
(218,532,c),
(207,537,o),
(207,550,o),
(215,562,c),
(225,580,o),
(240,598,o),
(252,616,c),
(258,623,o),
(261,631,o),
(269,637,c)
);
},
{
closed = 1;
nodes = (
(364,119,o),
(324,165,o),
(334,206,c),
(342,231,o),
(346,261,o),
(364,279,c),
(378,292,o),
(393,297,o),
(407,285,c),
(425,279,o),
(418,263,o),
(415,249,c),
(403,213,o),
(403,213,o),
(437,198,c),
(451,191,o),
(469,183,o),
(469,165,c),
(469,154,o),
(458,140,o),
(451,133,c),
(440,125,o),
(421,122,o),
(407,119,c)
);
}
);
width = 871;
}
);
unicode = 21021;
},
{
glyphname = uni6C1C;
lastChange = "2023-03-28 09:03:16 +0000";
layers = (
{
layerId = m01;
shapes = (
{
closed = 1;
nodes = (
(425,323,o),
(415,323,o),
(407,319,c),
(345,301,o),
(284,289,o),
(221,281,c),
(177,272,o),
(130,264,o),
(89,251,c),
(64,249,o),
(44,252,o),
(26,271,c),
(23,277,o),
(20,291,o),
(20,302,c),
(24,312,o),
(35,320,o),
(50,319,c),
(105,306,o),
(154,332,o),
(210,338,c),
(248,340,o),
(290,348,o),
(331,358,c),
(364,364,o),
(399,373,o),
(430,385,c),
(452,392,o),
(470,404,o),
(488,415,c),
(509,423,o),
(527,422,o),
(539,406,c),
(555,384,o),
(555,373,o),
(537,350,c),
(479,283,o),
(453,207,o),
(457,117,c),
(458,67,o),
(478,46,o),
(527,27,c),
(592,3,o),
(654,1,o),
(717,25,c),
(750,33,o),
(781,46,o),
(813,55,c),
(821,58,o),
(833,62,o),
(841,62,c),
(865,53,o),
(872,29,o),
(853,15,c),
(845,6,o),
(835,-1,o),
(824,-5,c),
(764,-27,o),
(701,-45,o),
(635,-49,c),
(569,-51,o),
(511,-32,o),
(456,2,c),
(416,28,o),
(399,66,o),
(392,111,c),
(392,182,o),
(402,251,o),
(436,312,c),
(436,314,o),
(436,318,o),
(439,325,c)
);
},
{
closed = 1;
nodes = (
(252,450,o),
(260,454,o),
(266,457,c),
(274,460,o),
(280,465,o),
(287,467,c),
(312,470,o),
(335,463,o),
(338,448,c),
(345,433,o),
(333,414,o),
(310,404,c),
(284,394,o),
(260,380,o),
(232,376,c),
(198,362,o),
(163,380,o),
(150,416,c),
(141,436,o),
(142,454,o),
(163,471,c),
(166,474,o),
(168,482,o),
(177,489,c),
(160,492,o),
(146,492,o),
(132,495,c),
(83,505,o),
(63,555,o),
(90,596,c),
(112,630,o),
(137,662,o),
(160,694,c),
(171,708,o),
(184,717,o),
(196,728,c),
(203,734,o),
(214,738,o),
(224,727,c),
(233,719,o),
(240,706,o),
(231,695,c),
(211,668,o),
(192,641,o),
(178,613,c),
(170,602,o),
(167,597,o),
(163,587,c),
(155,565,o),
(162,555,o),
(182,558,c),
(218,563,o),
(246,580,o),
(275,599,c),
(286,605,o),
(292,616,o),
(307,619,c),
(336,633,o),
(355,621,o),
(357,591,c),
(361,580,o),
(356,568,o),
(346,558,c),
(329,548,o),
(314,536,o),
(299,519,c),
(278,498,o),
(260,478,o),
(238,455,c),
(242,455,o),
(241,451,o),
(244,451,c)
);
},
{
closed = 1;
nodes = (
(217,41,o),
(231,41,o),
(245,43,c),
(259,46,o),
(276,45,o),
(266,71,c),
(253,68,o),
(235,69,o),
(214,66,c)
);
},
{
closed = 1;
nodes = (
(273,175,o),
(274,179,o),
(239,194,c),
(239,194,o),
(233,194,o),
(233,198,c),
(222,204,o),
(209,215,o),
(206,226,c),
(207,244,o),
(220,253,o),
(235,260,c),
(288,278,o),
(332,250,o),
(333,195,c),
(334,136,o),
(339,79,o),
(341,22,c),
(341,16,o),
(341,9,o),
(341,1,c),
(339,-33,o),
(317,-46,o),
(288,-30,c),
(277,-27,o),
(266,-26,o),
(257,-26,c),
(228,-33,o),
(201,-24,o),
(177,-12,c),
(169,-10,o),
(160,4,o),
(160,15,c),
(145,65,o),
(146,117,o),
(158,164,c),
(163,190,o),
(181,196,o),
(202,181,c),
(204,177,o),
(211,171,o),
(214,166,c),
(226,145,o),
(244,142,o),
(265,138,c)
);
}
);
width = 838;
}
);
unicode = 27676;
},
{
glyphname = uni90D1;
lastChange = "2023-03-28 09:03:34 +0000";
layers = (
{
layerId = m01;
shapes = (
{
closed = 1;
nodes = (
(642,379,o),
(686,406,o),
(697,465,c),
(683,461,o),
(673,461,o),
(662,458,c),
(631,448,o),
(600,430,o),
(576,406,c),
(562,389,o),
(535,389,o),
(521,399,c),
(507,417,o),
(510,437,o),
(531,451,c),
(562,475,o),
(593,499,o),
(635,510,c),
(669,520,o),
(700,537,o),
(738,534,c),
(769,534,o),
(786,520,o),
(786,489,c),
(786,479,o),
(783,468,o),
(780,461,c),
(759,430,o),
(738,399,o),
(717,365,c),
(735,361,o),
(748,361,o),
(762,358,c),
(783,351,o),
(804,351,o),
(821,341,c),
(883,310,o),
(873,216,o),
(824,189,c),
(776,161,o),
(721,144,o),
(662,161,c),
(652,161,o),
(642,161,o),
(642,179,c),
(642,192,o),
(655,189,o),
(666,192,c),
(683,196,o),
(700,199,o),
(717,203,c),
(745,210,o),
(769,223,o),
(786,248,c),
(800,272,o),
(797,289,o),
(769,299,c),
(748,310,o),
(724,306,o),
(704,303,c),
(673,299,o),
(645,296,o),
(617,313,c),
(617,265,o),
(617,220,o),
(617,179,c),
(617,89,o),
(614,-1,o),
(614,-91,c),
(614,-153,o),
(610,-215,o),
(607,-273,c),
(607,-294,o),
(604,-311,o),
(590,-325,c),
(573,-322,o),
(566,-308,o),
(566,-291,c),
(562,-215,o),
(555,-139,o),
(555,-63,c),
(552,16,o),
(552,96,o),
(548,172,c),
(545,220,o),
(542,268,o),
(510,310,c),
(500,323,o),
(504,337,o),
(514,351,c),
(528,365,o),
(552,375,o),
(569,368,c),
(583,361,o),
(593,351,o),
(604,344,c)
);
},
{
closed = 1;
nodes = (
(193,182,o),
(179,175,o),
(166,168,c),
(141,154,o),
(114,151,o),
(86,151,c),
(69,151,o),
(55,161,o),
(41,175,c),
(31,185,o),
(31,203,o),
(38,216,c),
(41,230,o),
(62,241,o),
(79,241,c),
(83,237,o),
(90,237,o),
(93,237,c),
(145,210,o),
(186,248,o),
(231,261,c),
(238,265,o),
(245,279,o),
(248,289,c),
(248,306,o),
(241,327,o),
(238,344,c),
(231,361,o),
(221,382,o),
(214,403,c),
(203,403,o),
(197,403,o),
(186,403,c),
(162,410,o),
(141,430,o),
(145,454,c),
(145,482,o),
(155,492,o),
(183,489,c),
(190,489,o),
(193,489,o),
(197,486,c),
(231,479,o),
(259,486,o),
(279,513,c),
(297,537,o),
(321,537,o),
(341,530,c),
(359,523,o),
(369,513,o),
(369,496,c),
(372,475,o),
(362,461,o),
(345,454,c),
(331,448,o),
(321,444,o),
(307,441,c),
(297,437,o),
(286,434,o),
(269,427,c),
(290,413,o),
(307,399,o),
(310,375,c),
(314,354,o),
(317,337,o),
(321,310,c),
(335,320,o),
(345,327,o),
(359,334,c),
(369,341,o),
(383,351,o),
(397,354,c),
(421,361,o),
(441,351,o),
(448,327,c),
(455,306,o),
(441,289,o),
(414,282,c),
(386,272,o),
(355,258,o),
(328,248,c),
(314,241,o),
(303,230,o),
(300,216,c),
(269,123,o),
(210,58,o),
(134,3,c),
(117,-11,o),
(93,-22,o),
(72,-32,c),
(62,-35,o),
(52,-35,o),
(45,-22,c),
(110,37,o),
(176,99,o),
(214,182,c),
(214,182,o),
(210,185,o),
(210,189,c)
);
},
{
closed = 1;
nodes = (
(345,765,o),
(335,772,o),
(331,782,c),
(328,793,o),
(328,806,o),
(331,813,c),
(335,820,o),
(348,827,o),
(355,824,c),
(376,820,o),
(397,810,o),
(414,799,c),
(431,786,o),
(435,761,o),
(421,741,c),
(404,713,o),
(390,689,o),
(369,665,c),
(348,637,o),
(328,613,o),
(303,586,c),
(297,579,o),
(286,568,o),
(276,579,c),
(262,589,o),
(262,599,o),
(272,613,c),
(297,651,o),
(317,692,o),
(341,730,c),
(345,737,o),
(348,744,o),
(352,755,c)
);
},
{
closed = 1;
nodes = (
(372,158,o),
(390,154,o),
(407,147,c),
(424,144,o),
(441,137,o),
(455,134,c),
(476,127,o),
(490,106,o),
(490,92,c),
(486,75,o),
(466,61,o),
(445,61,c),
(441,61,o),
(438,61,o),
(435,65,c),
(400,78,o),
(362,96,o),
(328,113,c),
(321,116,o),
(314,130,o),
(317,141,c),
(317,147,o),
(328,154,o),
(335,158,c),
(338,161,o),
(348,161,o),
(355,161,c)
);
},
{
closed = 1;
nodes = (
(159,658,o),
(186,641,o),
(217,623,c),
(231,617,o),
(235,596,o),
(224,582,c),
(214,565,o),
(186,558,o),
(172,572,c),
(152,592,o),
(134,617,o),
(117,641,c),
(117,641,o),
(117,648,o),
(117,655,c)
);
}
);
width = 897;
}
);
unicode = 37073;
},
{
glyphname = uni912D;
lastChange = "2023-03-28 09:03:41 +0000";
layers = (
{
layerId = m01;
shapes = (
{
closed = 1;
nodes = (
(239,561,o),
(243,561,o),
(243,561,c),
(243,568,o),
(239,571,o),
(239,578,c),
(236,575,o),
(232,575,o),
(229,571,c),
(232,568,o),
(236,564,o),
(239,558,c)
);
},
{
closed = 1;
nodes = (
(226,346,l),
(192,346,o),
(181,367,o),
(175,391,c),
(171,404,o),
(171,415,o),
(164,432,c),
(154,418,o),
(161,408,o),
(158,398,c),
(154,353,o),
(154,306,o),
(168,261,c),
(178,231,o),
(164,217,o),
(134,217,c),
(110,217,o),
(89,238,o),
(93,261,c),
(93,312,o),
(96,360,o),
(100,411,c),
(100,415,o),
(100,415,o),
(100,418,c),
(103,462,o),
(113,472,o),
(161,459,c),
(185,486,o),
(181,517,o),
(181,554,c),
(154,540,o),
(134,530,o),
(113,523,c),
(96,517,o),
(76,510,o),
(59,506,c),
(49,503,o),
(38,510,o),
(28,517,c),
(21,523,o),
(18,534,o),
(21,540,c),
(21,544,o),
(32,547,o),
(38,551,c),
(59,558,o),
(79,561,o),
(100,571,c),
(147,592,o),
(198,612,o),
(249,636,c),
(226,666,o),
(239,690,o),
(260,711,c),
(263,717,o),
(270,724,o),
(277,731,c),
(287,745,o),
(290,758,o),
(283,775,c),
(277,789,o),
(273,803,o),
(290,816,c),
(301,823,o),
(331,823,o),
(345,813,c),
(375,786,o),
(386,755,o),
(348,721,c),
(331,700,o),
(311,683,o),
(294,663,c),
(294,663,o),
(294,660,o),
(297,656,c),
(318,666,o),
(338,673,o),
(362,680,c),
(375,683,o),
(389,690,o),
(403,690,c),
(423,694,o),
(437,683,o),
(443,666,c),
(447,653,o),
(440,639,o),
(423,632,c),
(413,629,o),
(403,629,o),
(392,629,c),
(358,626,o),
(328,615,o),
(297,598,c),
(301,581,o),
(304,564,o),
(307,544,c),
(341,554,o),
(369,547,o),
(396,527,c),
(413,513,o),
(423,496,o),
(426,476,c),
(430,469,o),
(430,462,o),
(430,455,c),
(437,391,o),
(443,326,o),
(450,261,c),
(450,224,o),
(443,217,o),
(420,214,c),
(396,214,o),
(379,231,o),
(379,255,c),
(375,309,o),
(375,360,o),
(372,411,c),
(372,428,o),
(369,445,o),
(365,459,c),
(358,483,o),
(324,489,o),
(307,469,c),
(307,466,o),
(307,462,o),
(307,459,c),
(311,455,o),
(314,455,o),
(318,455,c),
(348,449,o),
(355,432,o),
(338,411,c),
(335,401,o),
(324,394,o),
(318,387,c),
(294,367,o),
(270,370,o),
(243,394,c),
(229,381,o),
(246,357,o),
(222,343,c)
);
},
{
closed = 1;
nodes = (
(607,190,l),
(600,200,o),
(603,210,o),
(617,217,c),
(634,224,o),
(651,234,o),
(665,244,c),
(672,248,o),
(682,255,o),
(685,261,c),
(689,272,o),
(699,289,o),
(695,295,c),
(689,306,o),
(675,312,o),
(661,316,c),
(648,323,o),
(634,323,o),
(617,326,c),
(597,329,o),
(583,346,o),
(580,367,c),
(576,387,o),
(586,401,o),
(600,408,c),
(610,415,o),
(617,421,o),
(627,425,c),
(624,428,o),
(620,432,o),
(620,435,c),
(607,432,o),
(597,428,o),
(586,425,c),
(573,418,o),
(563,411,o),
(549,411,c),
(532,408,o),
(518,415,o),
(515,428,c),
(508,445,o),
(518,452,o),
(529,459,c),
(573,479,o),
(614,500,o),
(658,523,c),
(678,534,o),
(695,523,o),
(712,506,c),
(726,493,o),
(723,476,o),
(716,455,c),
(709,442,o),
(699,428,o),
(692,418,c),
(685,404,o),
(678,394,o),
(672,384,c),
(689,377,o),
(699,370,o),
(712,367,c),
(784,353,o),
(780,272,o),
(750,234,c),
(729,210,o),
(702,193,o),
(672,180,c),
(648,173,o),
(627,176,o),
(603,190,c)
);
},
{
closed = 1;
nodes = (
(559,-144,l),
(559,-99,o),
(552,-52,o),
(552,-8,c),
(552,67,o),
(546,142,o),
(532,217,c),
(529,241,o),
(518,258,o),
(512,278,c),
(512,285,o),
(505,292,o),
(505,299,c),
(498,316,o),
(498,336,o),
(512,346,c),
(525,357,o),
(552,360,o),
(566,346,c),
(586,329,o),
(610,312,o),
(603,275,c),
(597,248,o),
(593,217,o),
(607,190,c),
(607,190,o),
(603,190,o),
(603,190,c),
(607,142,o),
(607,95,o),
(607,47,c),
(607,6,o),
(603,-35,o),
(600,-76,c),
(600,-99,o),
(597,-120,o),
(593,-140,c)
);
},
{
closed = 1;
nodes = (
(175,40,o),
(164,44,o),
(154,44,c),
(144,47,o),
(134,50,o),
(124,54,c),
(110,61,o),
(103,74,o),
(106,91,c),
(110,105,o),
(124,108,o),
(137,112,c),
(147,112,o),
(158,108,o),
(168,108,c),
(205,101,o),
(219,108,o),
(226,146,c),
(226,156,o),
(229,163,o),
(232,173,c),
(239,190,o),
(253,197,o),
(270,193,c),
(297,183,o),
(328,176,o),
(345,152,c),
(369,125,o),
(362,95,o),
(331,81,c),
(324,81,o),
(318,78,o),
(311,78,c),
(270,64,o),
(253,30,o),
(232,-1,c),
(222,-18,o),
(209,-31,o),
(195,-42,c),
(188,-48,o),
(175,-52,o),
(164,-42,c),
(161,-31,o),
(161,-21,o),
(164,-11,c),
(168,3,o),
(178,20,o),
(188,40,c)
);
},
{
closed = 1;
nodes = (
(243,350,o),
(260,353,o),
(277,357,c),
(297,363,o),
(311,357,o),
(318,343,c),
(324,329,o),
(318,316,o),
(301,302,c),
(287,295,o),
(277,289,o),
(263,282,c),
(266,278,l),
(273,278,o),
(283,278,o),
(294,278,c),
(304,275,o),
(314,275,o),
(321,272,c),
(328,268,o),
(335,258,o),
(335,251,c),
(335,244,o),
(328,234,o),
(321,231,c),
(314,227,o),
(307,227,o),
(301,224,c),
(277,217,o),
(249,214,o),
(226,197,c),
(209,186,o),
(188,197,o),
(178,214,c),
(171,231,o),
(178,244,o),
(198,255,c),
(209,258,o),
(215,261,o),
(229,265,c),
(209,285,o),
(185,299,o),
(195,329,c),
(205,333,o),
(215,340,o),
(226,346,c),
(226,346,o),
(222,343,o),
(222,343,c)
);
},
{
closed = 1;
nodes = (
(420,64,o),
(443,61,o),
(464,54,c),
(484,47,o),
(491,33,o),
(484,16,c),
(478,-4,o),
(464,-14,o),
(443,-8,c),
(423,-4,o),
(406,-1,o),
(386,6,c),
(379,6,o),
(372,9,o),
(365,13,c),
(352,23,o),
(341,33,o),
(345,50,c),
(348,64,o),
(365,64,o),
(379,67,c),
(386,67,o),
(392,67,o),
(399,67,c),
(399,67,o),
(399,67,o),
(399,71,c)
);
},
{
closed = 1;
nodes = (
(137,697,o),
(158,690,o),
(178,680,c),
(195,670,o),
(202,653,o),
(195,639,c),
(188,629,o),
(168,622,o),
(151,632,c),
(127,646,o),
(117,663,o),
(113,690,c)
);
}
);
width = 804;
}
);
unicode = 37165;
},
{
glyphname = uni9633;
lastChange = "2023-03-28 09:03:29 +0000";
layers = (
{
layerId = m01;
shapes = (
{
closed = 1;
nodes = (
(170,350,o),
(187,345,o),
(204,345,c),
(225,341,o),
(253,350,o),
(265,365,c),
(278,382,o),
(274,399,o),
(257,407,c),
(241,415,o),
(225,420,o),
(212,428,c),
(200,432,o),
(191,436,o),
(183,444,c),
(163,460,o),
(166,477,o),
(183,494,c),
(208,515,o),
(229,530,o),
(249,551,c),
(257,555,o),
(261,564,o),
(270,576,c),
(204,576,o),
(146,568,o),
(96,526,c),
(81,510,o),
(64,515,o),
(51,530,c),
(39,547,o),
(43,555,o),
(56,572,c),
(81,601,o),
(117,613,o),
(155,621,c),
(204,638,o),
(257,646,o),
(307,646,c),
(356,646,o),
(377,613,o),
(356,572,c),
(340,547,o),
(320,526,o),
(299,502,c),
(295,494,o),
(286,489,o),
(274,477,c),
(316,460,o),
(344,436,o),
(348,394,c),
(348,374,o),
(340,350,o),
(331,329,c),
(295,270,o),
(225,263,o),
(151,312,c),
(142,267,o),
(142,225,o),
(146,180,c),
(155,130,o),
(155,81,o),
(175,35,c),
(183,11,o),
(163,-18,o),
(138,-18,c),
(100,-22,o),
(88,-14,o),
(84,23,c),
(68,151,o),
(68,279,o),
(76,407,c),
(76,411,o),
(76,420,o),
(81,428,c),
(84,448,o),
(100,460,o),
(117,460,c),
(138,456,o),
(151,444,o),
(151,420,c),
(151,399,o),
(151,374,o),
(151,354,c)
);
},
{
closed = 1;
nodes = (
(497,390,o),
(489,369,o),
(489,345,c),
(485,308,o),
(481,267,o),
(476,225,c),
(476,217,o),
(485,204,o),
(489,192,c),
(493,172,o),
(497,147,o),
(505,126,c),
(538,130,o),
(571,139,o),
(604,143,c),
(629,143,o),
(658,147,o),
(670,114,c),
(670,143,o),
(674,172,o),
(670,200,c),
(665,267,o),
(662,329,o),
(654,390,c),
(654,399,o),
(650,411,o),
(650,420,c),
(641,439,o),
(633,448,o),
(608,444,c),
(595,439,o),
(587,432,o),
(580,432,c),
(550,424,o),
(530,436,o),
(521,460,c),
(517,481,o),
(525,498,o),
(550,506,c),
(580,515,o),
(604,526,o),
(633,530,c),
(665,539,o),
(690,530,o),
(711,498,c),
(728,464,o),
(741,432,o),
(741,394,c),
(745,337,o),
(752,283,o),
(752,225,c),
(752,180,o),
(752,135,o),
(745,90,c),
(736,27,o),
(695,11,o),
(641,48,c),
(633,52,o),
(629,60,o),
(620,69,c),
(571,52,o),
(521,20,o),
(489,90,c),
(485,90,o),
(481,90,o),
(476,90,c),
(422,85,o),
(402,98,o),
(402,151,c),
(402,221,o),
(411,291,o),
(415,361,c),
(418,403,o),
(435,411,o),
(481,415,c)
);
},
{
closed = 1;
nodes = (
(538,230,o),
(525,234,o),
(513,242,c),
(481,259,o),
(481,299,o),
(513,312,c),
(542,325,o),
(576,337,o),
(608,329,c),
(620,325,o),
(637,320,o),
(641,304,c),
(646,283,o),
(641,270,o),
(625,255,c),
(604,234,o),
(580,234,o),
(550,225,c)
);
}
);
width = 772;
}
);
unicode = 38451;
},
{
glyphname = uni967D;
lastChange = "2023-03-28 09:03:51 +0000";
layers = (
{
layerId = m01;
shapes = (
{
closed = 1;
nodes = (
(548,352,l),
(577,361,o),
(607,366,o),
(636,375,c),
(670,384,o),
(690,379,o),
(701,354,c),
(719,318,o),
(700,287,o),
(663,293,c),
(609,302,o),
(559,286,o),
(507,275,c),
(502,264,o),
(498,255,o),
(493,243,c),
(497,243,o),
(498,242,o),
(502,242,c),
(566,242,o),
(631,248,o),
(692,213,c),
(752,175,o),
(752,111,o),
(727,62,c),
(700,6,o),
(652,-25,o),
(588,-27,c),
(568,-29,o),
(552,-25,o),
(545,0,c),
(554,6,o),
(564,14,o),
(575,19,c),
(613,36,o),
(645,60,o),
(663,102,c),
(672,125,o),
(670,132,o),
(650,159,c),
(634,140,o),
(617,121,o),
(600,102,c),
(574,68,o),
(548,34,o),
(520,0,c),
(508,-13,o),
(493,-23,o),
(479,-31,c),
(475,-34,o),
(462,-34,o),
(456,-31,c),
(450,-25,o),
(446,-15,o),
(448,-7,c),
(450,7,o),
(459,22,o),
(466,34,c),
(491,73,o),
(534,114,o),
(545,160,c),
(510,132,o),
(492,100,o),
(470,73,c),
(462,64,o),
(454,55,o),
(446,48,c),
(436,39,o),
(425,34,o),
(414,44,c),
(403,52,o),
(393,64,o),
(402,79,c),
(411,97,o),
(422,113,o),
(432,129,c),
(438,140,o),
(445,152,o),
(454,164,c),
(443,168,o),
(434,173,o),
(432,175,c),
(403,150,o),
(377,125,o),
(352,103,c),
(331,84,o),
(307,84,o),
(291,102,c),
(275,120,o),
(275,132,o),
(291,148,c),
(307,166,o),
(327,180,o),
(343,195,c),
(355,207,o),
(368,220,o),
(377,239,c),
(366,238,o),
(357,236,o),
(345,236,c),
(320,234,o),
(294,234,o),
(270,236,c),
(262,236,o),
(254,239,o),
(248,243,c),
(235,252,o),
(223,279,o),
(227,290,c),
(235,306,o),
(252,300,o),
(266,302,c),
(266,302,o),
(268,302,o),
(269,302,c),
(323,284,o),
(373,304,o),
(422,318,c),
(465,330,o),
(507,341,o),
(548,352,c)
);
},
{
closed = 1;
nodes = (
(166,463,o),
(150,475,o),
(136,488,c),
(138,467,o),
(123,443,o),
(150,427,c),
(159,432,o),
(168,436,o),
(189,445,c)
);
},
{
closed = 1;
nodes = (
(143,538,o),
(154,554,o),
(166,572,c),
(141,584,o),
(122,576,o),
(101,569,c),
(73,561,o),
(58,568,o),
(48,592,c),
(39,611,o),
(42,622,o),
(61,629,c),
(111,649,o),
(162,660,o),
(214,662,c),
(240,663,o),
(262,649,o),
(270,624,c),
(278,601,o),
(272,577,o),
(256,560,c),
(245,547,o),
(234,534,o),
(221,522,c),
(254,486,o),
(277,448,o),
(250,404,c),
(225,365,o),
(186,363,o),
(144,372,c),
(143,365,o),
(141,361,o),
(141,354,c),
(141,274,o),
(143,195,o),
(144,114,c),
(144,77,o),
(148,36,o),
(148,-4,c),
(150,-16,o),
(150,-29,o),
(148,-42,c),
(143,-59,o),
(123,-75,o),
(109,-75,c),
(93,-77,o),
(73,-58,o),
(68,-40,c),
(66,-34,o),
(66,-27,o),
(66,-21,c),
(69,57,o),
(74,136,o),
(74,213,c),
(74,309,o),
(73,405,o),
(50,499,c),
(46,517,o),
(47,533,o),
(63,540,c),
(77,549,o),
(95,552,o),
(109,538,c),
(116,531,o),
(122,526,o),
(130,518,c)
);
},
{
closed = 1;
nodes = (
(432,486,l),
(433,477,o),
(433,467,o),
(434,458,c),
(461,459,o),
(482,461,o),
(508,463,c),
(507,474,o),
(507,480,o),
(505,486,c)
);
},
{
closed = 1;
nodes = (
(537,363,o),
(524,375,o),
(513,384,c),
(497,383,o),
(484,383,o),
(470,379,c),
(461,377,o),
(448,375,o),
(439,368,c),
(422,350,o),
(403,350,o),
(384,359,c),
(364,366,o),
(359,384,o),
(359,404,c),
(363,454,o),
(366,506,o),
(370,558,c),
(370,577,o),
(379,588,o),
(396,593,c),
(414,598,o),
(422,584,o),
(430,572,c),
(433,568,o),
(436,561,o),
(441,556,c),
(463,560,o),
(484,565,o),
(508,569,c),
(508,638,l),
(497,641,o),
(489,643,o),
(479,643,c),
(452,646,o),
(439,652,o),
(434,672,c),
(430,689,o),
(438,716,o),
(457,724,c),
(481,733,o),
(508,740,o),
(534,738,c),
(561,738,o),
(583,705,o),
(586,676,c),
(586,665,o),
(584,652,o),
(584,641,c),
(581,595,o),
(579,549,o),
(579,502,c),
(579,480,o),
(581,458,o),
(584,435,c),
(595,372,o),
(596,383,o),
(548,352,c),
(548,352,o),
(548,352,o),
(548,352,c)
);
}
);
width = 763;
}
);
unicode = 38525;
},
{
glyphname = "yang-ko";
lastChange = "2023-03-28 09:21:06 +0000";
layers = (
{
layerId = m01;
shapes = (
{
closed = 1;
nodes = (
(221,461,o),
(211,479,o),
(191,479,c),
(179,479,o),
(164,478,o),
(154,472,c),
(146,467,o),
(143,452,o),
(140,442,c),
(133,425,o),
(127,407,o),
(122,390,c),
(120,379,o),
(117,368,o),
(118,358,c),
(120,336,o),
(136,325,o),
(154,336,c),
(189,358,o),
(215,387,o),
(219,419,c)
);
},
{
closed = 1;
nodes = (
(266,539,o),
(313,438,o),
(277,375,c),
(257,341,o),
(232,310,o),
(200,286,c),
(168,261,o),
(134,258,o),
(99,273,c),
(66,287,o),
(53,315,o),
(49,349,c),
(45,390,o),
(55,425,o),
(78,461,c),
(95,489,o),
(115,508,o),
(143,521,c),
(158,529,o),
(175,533,o),
(191,538,c)
);
},
{
closed = 1;
nodes = (
(423,383,o),
(428,297,o),
(435,211,c),
(437,174,o),
(419,152,o),
(382,156,c),
(366,157,o),
(351,178,o),
(348,200,c),
(347,212,o),
(349,224,o),
(350,236,c),
(354,360,o),
(359,483,o),
(364,607,c),
(364,625,o),
(364,644,o),
(363,663,c),
(362,687,o),
(369,698,o),
(387,700,c),
(406,703,o),
(424,691,o),
(429,672,c),
(431,664,o),
(431,654,o),
(430,645,c),
(429,586,o),
(427,527,o),
(424,469,c),
(423,469,o),
(421,469,o),
(418,469,c)
);
},
{
closed = 1;
nodes = (
(351,52,o),
(346,45,o),
(340,41,c),
(333,35,o),
(324,32,o),
(316,27,c),
(292,14,o),
(286,-3,o),
(295,-25,c),
(304,-48,o),
(331,-63,o),
(352,-53,c),
(370,-45,o),
(388,-34,o),
(400,-20,c),
(438,23,o),
(429,45,o),
(372,56,c),
(369,56,o),
(364,57,o),
(357,59,c)
);
},
{
closed = 1;
nodes = (
(415,103,o),
(440,97,o),
(460,77,c),
(491,47,o),
(499,2,o),
(475,-32,c),
(439,-83,o),
(394,-120,o),
(326,-117,c),
(272,-113,o),
(215,-45,o),
(221,9,c),
(224,43,o),
(245,63,o),
(273,74,c),
(310,88,o),
(348,96,o),
(386,107,c)
);
},
{
closed = 1;
nodes = (
(461,341,o),
(443,359,o),
(443,383,c),
(444,405,o),
(455,414,o),
(482,417,c),
(519,420,o),
(555,427,o),
(592,430,c),
(604,431,o),
(619,427,o),
(630,422,c),
(646,414,o),
(647,400,o),
(632,388,c),
(632,387,o),
(631,385,o),
(629,385,c),
(582,369,o),
(535,354,o),
(495,341,c)
);
},
{
closed = 1;
nodes = (
(549,561,o),
(561,560,o),
(572,559,c),
(587,557,o),
(600,551,o),
(600,536,c),
(600,526,o),
(593,514,o),
(584,507,c),
(571,495,o),
(554,486,o),
(539,475,c),
(519,461,o),
(501,467,o),
(483,476,c),
(464,486,o),
(456,506,o),
(457,527,c),
(457,534,o),
(465,545,o),
(471,547,c),
(492,555,o),
(514,559,o),
(536,565,c),
(536,564,o),
(537,562,o),
(537,562,c)
);
}
);
width = 710;
}
);
unicode = 50577;
},
{
glyphname = "jeong-ko";
lastChange = "2023-03-28 09:21:00 +0000";
layers = (
{
layerId = m01;
shapes = (
{
closed = 1;
nodes = (
(293,382,o),
(287,372,o),
(282,362,c),
(249,297,o),
(204,243,o),
(136,211,c),
(118,203,o),
(97,198,o),
(77,195,c),
(68,195,o),
(54,201,o),
(49,209,c),
(42,222,o),
(55,228,o),
(65,234,c),
(138,277,o),
(192,339,o),
(230,415,c),
(234,424,o),
(238,434,o),
(241,443,c),
(243,448,o),
(244,453,o),
(246,460,c),
(219,459,o),
(195,457,o),
(171,456,c),
(149,454,o),
(127,458,o),
(112,476,c),
(106,483,o),
(103,493,o),
(104,502,c),
(104,506,o),
(117,511,o),
(125,511,c),
(230,523,o),
(333,542,o),
(435,570,c),
(452,575,o),
(465,572,o),
(479,566,c),
(494,560,o),
(504,547,o),
(502,530,c),
(500,511,o),
(488,502,o),
(469,499,c),
(434,495,o),
(401,490,o),
(367,485,c),
(362,484,o),
(357,483,o),
(351,481,c),
(350,454,o),
(357,430,o),
(369,407,c),
(383,382,o),
(403,367,o),
(433,364,c),
(449,363,o),
(465,360,o),
(481,355,c),
(504,346,o),
(518,317,o),
(511,300,c),
(502,281,o),
(468,264,o),
(445,278,c),
(419,294,o),
(388,304,o),
(365,322,c),
(341,340,o),
(323,364,o),
(298,390,c)
);
},
{
closed = 1;
nodes = (
(735,203,o),
(729,228,o),
(729,256,c),
(728,291,o),
(728,325,o),
(727,359,c),
(727,373,o),
(727,387,o),
(727,406,c),
(706,405,o),
(689,404,o),
(671,402,c),
(646,399,o),
(621,396,o),
(596,393,c),
(580,392,o),
(570,400,o),
(562,413,c),
(551,433,o),
(556,448,o),
(578,453,c),
(612,460,o),
(646,465,o),
(680,469,c),
(692,471,o),
(705,469,o),
(722,469,c),
(726,506,o),
(722,542,o),
(718,576,c),
(717,581,o),
(715,586,o),
(714,591,c),
(713,605,o),
(706,623,o),
(723,628,c),
(736,632,o),
(754,630,o),
(767,624,c),
(785,616,o),
(794,598,o),
(794,576,c),
(795,462,o),
(803,347,o),
(782,233,c),
(779,215,o),
(771,199,o),
(762,174,c)
);
},
{
closed = 1;
nodes = (
(465,5,o),
(493,-14,o),
(520,3,c),
(538,16,o),
(552,35,o),
(565,53,c),
(574,66,o),
(569,81,o),
(555,85,c),
(536,90,o),
(513,97,o),
(497,90,c),
(477,83,o),
(467,60,o),
(465,43,c)
);
},
{
closed = 1;
nodes = (
(442,-71,o),
(378,-10,o),
(392,54,c),
(402,103,o),
(433,140,o),
(479,162,c),
(486,165,o),
(495,167,o),
(502,166,c),
(532,157,o),
(563,150,o),
(590,135,c),
(645,106,o),
(654,49,o),
(615,0,c),
(605,-13,o),
(594,-26,o),
(583,-38,c),
(562,-57,o),
(539,-73,o),
(507,-68,c)
);
}
);
width = 840;
}
);
unicode = 51221;
},
{
glyphname = "co-ko";
lastChange = "2023-03-28 09:21:10 +0000";
layers = (
{
layerId = m01;
shapes = (
{
closed = 1;
nodes = (
(153,249,o),
(243,310,o),
(301,417,c),
(253,406,o),
(216,398,o),
(178,389,c),
(131,377,o),
(113,385,o),
(89,431,c),
(99,454,o),
(122,464,o),
(145,466,c),
(266,485,o),
(385,503,o),
(505,520,c),
(525,524,o),
(543,524,o),
(560,523,c),
(571,520,o),
(587,515,o),
(594,506,c),
(602,495,o),
(610,476,o),
(605,463,c),
(602,453,o),
(583,444,o),
(571,442,c),
(544,439,o),
(517,441,o),
(491,441,c),
(486,441,o),
(480,440,o),
(472,430,c),
(519,399,o),
(565,369,o),
(612,341,c),
(656,313,o),
(705,301,o),
(755,294,c),
(766,293,o),
(777,292,o),
(786,286,c),
(802,279,o),
(802,262,o),
(786,252,c),
(778,247,o),
(767,244,o),
(757,244,c),
(699,242,o),
(642,240,o),
(589,274,c),
(546,300,o),
(503,326,o),
(459,351,c),
(435,365,o),
(410,376,o),
(386,387,c),
(352,350,o),
(324,314,o),
(293,281,c),
(252,240,o),
(208,202,o),
(152,179,c),
(122,164,o),
(99,165,o),
(61,187,c)
);
},
{
closed = 1;
nodes = (
(329,122,o),
(331,188,o),
(332,255,c),
(332,279,o),
(341,293,o),
(361,297,c),
(385,303,o),
(400,297,o),
(408,269,c),
(414,238,o),
(414,205,o),
(416,173,c),
(417,147,o),
(414,123,o),
(416,96,c),
(419,58,o),
(427,51,o),
(466,51,c),
(489,51,o),
(510,44,o),
(528,29,c),
(544,17,o),
(551,-2,o),
(546,-21,c),
(540,-40,o),
(519,-52,o),
(496,-50,c),
(489,-50,o),
(484,-50,o),
(478,-46,c),
(431,-29,o),
(383,-27,o),
(333,-39,c),
(297,-47,o),
(281,-38,o),
(265,-6,c),
(253,16,o),
(258,31,o),
(280,41,c),
(293,46,o),
(305,47,o),
(327,53,c)
);
},
{
closed = 1;
nodes = (
(327,616,o),
(362,624,o),
(396,629,c),
(408,631,o),
(419,631,o),
(431,629,c),
(451,625,o),
(463,611,o),
(465,591,c),
(467,571,o),
(459,552,o),
(438,550,c),
(397,544,o),
(353,541,o),
(312,543,c),
(286,543,o),
(281,569,o),
(293,609,c)
);
}
);
width = 840;
}
);
unicode = 52488;
},
{
glyphname = "i-hira";
lastChange = "2023-03-28 09:21:21 +0000";
layers = (
{
layerId = m01;
shapes = (
{
closed = 1;
nodes = (
(233,244,o),
(247,257,o),
(262,268,c),
(279,280,o),
(290,276,o),
(298,258,c),
(317,212,o),
(257,117,o),
(207,116,c),
(193,116,o),
(176,123,o),
(166,132,c),
(153,143,o),
(140,160,o),
(136,176,c),
(123,225,o),
(110,274,o),
(115,326,c),
(119,359,o),
(119,393,o),
(122,426,c),
(122,434,o),
(123,443,o),
(126,450,c),
(136,474,o),
(164,477,o),
(178,455,c),
(184,444,o),
(189,429,o),
(189,416,c),
(191,394,o),
(189,372,o),
(188,350,c),
(187,308,o),
(196,269,o),
(216,229,c)
);
},
{
closed = 1;
nodes = (
(436,449,o),
(449,458,o),
(461,456,c),
(539,444,o),
(601,392,o),
(605,310,c),
(608,264,o),
(552,223,o),
(508,237,c),
(492,242,o),
(481,264,o),
(487,281,c),
(489,287,o),
(494,293,o),
(498,298,c),
(524,336,o),
(519,356,o),
(478,380,c),
(440,400,o),
(440,400,o),
(421,445,c)
);
}
);
width = 640;
}
);
unicode = 12356;
},
{
glyphname = "u-hira";
lastChange = "2023-03-28 09:21:34 +0000";
layers = (
{
layerId = m01;
shapes = (
{
closed = 1;
nodes = (
(206,64,o),
(216,77,o),
(228,88,c),
(267,122,o),
(308,155,o),
(346,191,c),
(366,209,o),
(382,232,o),
(397,256,c),
(416,287,o),
(412,319,o),
(384,341,c),
(364,357,o),
(340,373,o),
(316,377,c),
(260,385,o),
(203,384,o),
(150,357,c),
(134,348,o),
(119,346,o),
(103,354,c),
(73,367,o),
(68,401,o),
(94,420,c),
(105,429,o),
(118,435,o),
(131,438,c),
(188,449,o),
(245,463,o),
(303,456,c),
(384,447,o),
(447,411,o),
(483,335,c),
(511,276,o),
(495,225,o),
(452,184,c),
(410,142,o),
(364,104,o),
(316,70,c),
(293,52,o),
(262,44,o),
(233,35,c),
(223,32,o),
(211,38,o),
(199,40,c),
(198,44,o),
(197,49,o),
(196,53,c)
);
},
{
closed = 1;
nodes = (
(186,681,o),
(198,694,o),
(216,688,c),
(253,677,o),
(289,663,o),
(323,646,c),
(346,634,o),
(350,600,o),
(336,580,c),
(325,565,o),
(293,559,o),
(276,572,c),
(251,590,o),
(228,609,o),
(205,629,c),
(196,638,o),
(190,651,o),
(186,657,c)
);
}
);
width = 600;
}
);
unicode = 12358;
},
{
glyphname = "si-hira";
lastChange = "2023-03-28 09:21:23 +0000";
layers = (
{
layerId = m01;
shapes = (
{
closed = 1;
nodes = (
(200,596,o),
(214,584,o),
(211,551,c),
(209,521,o),
(205,490,o),
(198,461,c),
(180,389,o),
(189,319,o),
(214,250,c),
(233,199,o),
(283,180,o),
(331,208,c),
(357,223,o),
(378,246,o),
(401,265,c),
(419,280,o),
(435,299,o),
(463,295,c),
(478,259,o),
(459,228,o),
(443,201,c),
(423,165,o),
(393,137,o),
(355,116,c),
(274,72,o),
(171,130,o),
(147,195,c),
(121,265,o),
(105,338,o),
(118,414,c),
(129,476,o),
(137,539,o),
(164,596,c)
);
}
);
width = 560;
}
);
unicode = 12375;
},
{
glyphname = "te-hira";
lastChange = "2023-03-28 09:21:17 +0000";
layers = (
{
layerId = m01;
shapes = (
{
closed = 1;
nodes = (
(237,415,o),
(193,406,o),
(148,400,c),
(121,397,o),
(93,397,o),
(66,397,c),
(39,396,o),
(22,409,o),
(9,438,c),
(22,442,o),
(32,448,o),
(43,450,c),
(184,472,o),
(324,494,o),
(464,516,c),
(483,519,o),
(502,524,o),
(521,527,c),
(548,532,o),
(573,531,o),
(596,515,c),
(614,501,o),
(621,478,o),
(613,460,c),
(601,435,o),
(586,425,o),
(564,431,c),
(499,450,o),
(441,431,o),
(387,399,c),
(336,368,o),
(303,320,o),
(282,264,c),
(270,230,o),
(274,220,o),
(308,207,c),
(324,201,o),
(342,197,o),
(359,194,c),
(377,191,o),
(395,191,o),
(413,188,c),
(435,184,o),
(445,169,o),
(448,148,c),
(455,103,o),
(425,76,o),
(379,92,c),
(330,110,o),
(281,131,o),
(235,156,c),
(191,180,o),
(174,241,o),
(199,286,c),
(224,332,o),
(254,375,o),
(285,423,c)
);
}
);
width = 630;
}
);
unicode = 12390;
},
{
glyphname = "yo-hira";
lastChange = "2023-03-28 09:21:31 +0000";
layers = (
{
layerId = m01;
shapes = (
{
closed = 1;
nodes = (
(164,155,o),
(164,152,o),
(164,150,c),
(183,146,o),
(202,141,o),
(221,139,c),
(249,137,o),
(253,142,o),
(266,175,c),
(229,180,o),
(197,171,o),
(164,159,c)
);
},
{
closed = 1;
nodes = (
(299,401,o),
(279,551,o),
(269,702,c),
(302,704,o),
(319,693,o),
(327,663,c),
(333,634,o),
(337,604,o),
(339,574,c),
(342,535,o),
(344,496,o),
(347,458,c),
(347,452,o),
(348,448,o),
(349,442,c),
(373,442,o),
(396,441,o),
(418,442,c),
(459,444,o),
(500,448,o),
(542,451,c),
(553,451,o),
(564,448,o),
(575,445,c),
(589,441,o),
(597,429,o),
(597,413,c),
(595,399,o),
(583,393,o),
(569,392,c),
(538,389,o),
(507,385,o),
(476,381,c),
(435,376,o),
(395,369,o),
(351,362,c),
(351,238,l),
(361,236,o),
(371,233,o),
(382,231,c),
(444,215,o),
(501,192,o),
(548,145,c),
(550,142,o),
(554,141,o),
(556,137,c),
(560,127,o),
(571,112,o),
(568,106,c),
(560,89,o),
(543,100,o),
(532,104,c),
(513,112,o),
(497,124,o),
(478,132,c),
(443,147,o),
(406,160,o),
(369,172,c),
(362,175,o),
(353,173,o),
(341,173,c),
(338,160,o),
(335,146,o),
(332,133,c),
(321,85,o),
(298,67,o),
(250,71,c),
(192,73,o),
(141,98,o),
(89,119,c),
(88,120,o),
(87,121,o),
(86,122,c),
(69,138,o),
(44,148,o),
(49,178,c),
(55,206,o),
(79,210,o),
(101,214,c),
(159,227,o),
(216,238,o),
(279,251,c)
);
}
);
width = 640;
}
);
unicode = 12424;
},
{
glyphname = "yosmall-hira";
lastChange = "2023-03-28 09:21:26 +0000";
layers = (
{
layerId = m01;
shapes = (
{
closed = 1;
nodes = (
(204,216,o),
(220,217,o),
(239,254,c),
(214,252,o),
(193,251,o),
(166,249,c)
);
},
{
closed = 1;
nodes = (
(347,315,l),
(379,299,o),
(413,284,o),
(445,267,c),
(485,245,o),
(509,210,o),
(525,170,c),
(537,139,o),
(533,123,o),
(513,96,c),
(491,106,o),
(486,129,o),
(475,148,c),
(444,202,o),
(392,223,o),
(333,240,c),
(326,225,o),
(320,212,o),
(315,200,c),
(302,166,o),
(276,151,o),
(241,151,c),
(210,151,o),
(180,156,o),
(155,176,c),
(131,196,o),
(105,214,o),
(85,238,c),
(56,270,o),
(69,305,o),
(112,314,c),
(142,321,o),
(173,321,o),
(203,323,c),
(222,324,o),
(241,323,o),
(263,323,c),
(277,375,o),
(273,426,o),
(272,477,c),
(272,497,o),
(271,518,o),
(269,539,c),
(268,555,o),
(274,566,o),
(289,571,c),
(304,577,o),
(317,568,o),
(323,555,c),
(333,534,o),
(339,512,o),
(349,485,c),
(368,484,o),
(391,482,o),
(414,480,c),
(436,479,o),
(457,476,o),
(479,474,c),
(499,472,o),
(511,463,o),
(511,443,c),
(511,421,o),
(492,418,o),
(476,416,c),
(447,411,o),
(418,408,o),
(390,404,c),
(376,402,o),
(363,399,o),
(347,396,c)
);
}
);
width = 600;
}
);
unicode = 12423;
},
{
glyphname = name_ug;
lastChange = "2023-03-28 09:50:52 +0000";
layers = (
{
layerId = m01;
shapes = (
{
closed = 1;
nodes = (
(3407,180,o),
(3402,193,o),
(3392,199,c),
(3367,213,o),
(3352,235,o),
(3341,258,c),
(3336,265,o),
(3333,272,o),
(3327,278,c),
(3299,315,o),
(3274,317,o),
(3237,291,c),
(3228,285,o),
(3222,278,o),
(3215,273,c),
(3196,265,o),
(3179,271,o),
(3168,286,c),
(3158,302,o),
(3158,320,o),
(3174,329,c),
(3206,350,o),
(3239,369,o),
(3275,382,c),
(3300,393,o),
(3328,378,o),
(3350,360,c),
(3364,350,o),
(3377,336,o),
(3386,322,c),
(3416,285,o),
(3452,250,o),
(3491,221,c),
(3502,213,o),
(3515,209,o),
(3528,204,c),
(3568,196,o),
(3587,175,o),
(3588,137,c),
(3590,104,o),
(3573,82,o),
(3537,71,c),
(3528,69,o),
(3519,64,o),
(3510,65,c),
(3475,69,o),
(3439,75,o),
(3402,64,c),
(3389,60,o),
(3372,75,o),
(3356,81,c),
(3297,100,o),
(3238,111,o),
(3176,111,c),
(3073,111,o),
(2972,107,o),
(2870,104,c),
(2842,104,o),
(2815,102,o),
(2796,75,c),
(2783,55,o),
(2671,23,o),
(2646,25,c),
(2636,26,o),
(2626,27,o),
(2614,25,c),
(2586,19,o),
(2560,26,o),
(2537,44,c),
(2482,87,o),
(2442,138,o),
(2454,214,c),
(2461,268,o),
(2476,280,o),
(2532,286,c),
(2543,277,o),
(2539,265,o),
(2534,255,c),
(2490,167,o),
(2581,115,o),
(2643,124,c),
(2646,124,o),
(2649,124,o),
(2651,124,c),
(2671,131,o),
(2717,203,o),
(2717,221,c),
(2720,304,o),
(2722,386,o),
(2724,467,c),
(2725,501,o),
(2726,537,o),
(2729,570,c),
(2729,579,o),
(2732,592,o),
(2738,598,c),
(2759,619,o),
(2784,610,o),
(2789,579,c),
(2792,541,o),
(2792,502,o),
(2792,465,c),
(2791,380,o),
(2790,293,o),
(2789,209,c),
(2789,177,o),
(2796,171,o),
(2819,171,c),
(2893,169,o),
(2967,171,o),
(3043,171,c),
(3047,183,o),
(3054,196,o),
(3061,211,c),
(3046,234,o),
(3032,257,o),
(3017,280,c),
(3010,288,o),
(2998,294,o),
(2989,299,c),
(2964,310,o),
(2954,336,o),
(2959,374,c),
(2961,400,o),
(2974,410,o),
(3005,412,c),
(3016,412,o),
(3028,412,o),
(3042,412,c),
(3045,404,o),
(3049,396,o),
(3053,388,c),
(3067,352,o),
(3079,316,o),
(3092,280,c),
(3102,254,o),
(3112,226,o),
(3107,196,c),
(3104,177,o),
(3114,171,o),
(3132,169,c),
(3171,168,o),
(3209,167,o),
(3247,165,c),
(3276,161,o),
(3306,160,o),
(3334,153,c),
(3360,146,o),
(3386,153,o),
(3417,166,c)
);
},
{
closed = 1;
nodes = (
(1742,247,o),
(1731,239,o),
(1727,227,c),
(1724,220,o),
(1724,206,o),
(1730,203,c),
(1737,196,o),
(1751,191,o),
(1758,196,c),
(1765,197,o),
(1772,212,o),
(1769,220,c),
(1768,233,o),
(1761,243,o),
(1753,263,c)
);
},
{
closed = 1;
nodes = (
(1736,97,o),
(1729,100,o),
(1722,104,c),
(1676,124,o),
(1641,173,o),
(1648,213,c),
(1658,279,o),
(1695,328,o),
(1754,335,c),
(1785,337,o),
(1809,324,o),
(1826,302,c),
(1854,269,o),
(1863,229,o),
(1855,187,c),
(1879,176,o),
(1904,175,o),
(1931,177,c),
(2017,188,o),
(2104,195,o),
(2199,203,c),
(2187,213,o),
(2181,220,o),
(2175,225,c),
(2145,240,o),
(2125,264,o),
(2106,294,c),
(2098,310,o),
(2096,335,o),
(2071,336,c),
(2042,338,o),
(2016,332,o),
(1993,314,c),
(1983,307,o),
(1977,299,o),
(1968,288,c),
(1931,310,o),
(1929,338,o),
(1959,369,c),
(1997,408,o),
(2074,418,o),
(2120,389,c),
(2134,381,o),
(2145,365,o),
(2155,351,c),
(2180,307,o),
(2216,272,o),
(2262,250,c),
(2281,242,o),
(2298,234,o),
(2319,239,c),
(2329,240,o),
(2343,236,o),
(2355,234,c),
(2377,227,o),
(2393,206,o),
(2390,188,c),
(2388,168,o),
(2365,146,o),
(2343,147,c),
(2243,151,o),
(2143,131,o),
(2044,128,c),
(2034,128,o),
(2023,124,o),
(2014,123,c),
(1964,117,o),
(1916,113,o),
(1869,109,c),
(1848,108,o),
(1834,104,o),
(1828,85,c),
(1819,54,o),
(1812,22,o),
(1802,-10,c),
(1796,-26,o),
(1788,-44,o),
(1775,-56,c),
(1742,-89,o),
(1705,-119,o),
(1669,-148,c),
(1658,-155,o),
(1649,-162,o),
(1640,-162,c),
(1581,-167,o),
(1522,-167,o),
(1473,-132,c),
(1454,-119,o),
(1441,-97,o),
(1427,-78,c),
(1418,-66,o),
(1423,-51,o),
(1437,-45,c),
(1445,-41,o),
(1462,-44,o),
(1467,-49,c),
(1481,-63,o),
(1493,-83,o),
(1515,-81,c),
(1539,-78,o),
(1563,-70,o),
(1587,-63,c),
(1640,-45,o),
(1683,-8,o),
(1721,32,c),
(1737,49,o),
(1747,67,o),
(1743,93,c)
);
},
{
closed = 1;
nodes = (
(855,507,o),
(854,500,o),
(854,492,c),
(848,346,o),
(841,203,o),
(836,57,c),
(835,35,o),
(840,12,o),
(843,-10,c),
(844,-19,o),
(848,-30,o),
(848,-40,c),
(851,-71,o),
(832,-92,o),
(801,-88,c),
(751,-81,o),
(704,-95,o),
(655,-97,c),
(627,-98,o),
(601,-98,o),
(573,-96,c),
(523,-90,o),
(476,-96,o),
(428,-107,c),
(346,-125,o),
(266,-118,o),
(187,-89,c),
(153,-75,o),
(122,-56,o),
(93,-33,c),
(50,1,o),
(52,60,o),
(80,91,c),
(124,139,o),
(182,166,o),
(246,175,c),
(253,175,o),
(261,171,o),
(268,168,c),
(268,146,o),
(254,139,o),
(239,132,c),
(215,119,o),
(191,104,o),
(169,89,c),
(160,81,o),
(150,70,o),
(144,59,c),
(130,37,o),
(131,27,o),
(150,11,c),
(209,-36,o),
(272,-67,o),
(350,-55,c),
(409,-45,o),
(468,-38,o),
(526,-33,c),
(549,-30,o),
(571,-33,o),
(593,-37,c),
(640,-45,o),
(684,-34,o),
(729,-21,c),
(751,-14,o),
(759,3,o),
(760,25,c),
(769,131,o),
(776,239,o),
(782,345,c),
(787,393,o),
(788,441,o),
(789,490,c),
(791,518,o),
(795,545,o),
(782,572,c),
(774,590,o),
(795,636,o),
(811,644,c),
(826,652,o),
(841,651,o),
(848,634,c),
(861,607,o),
(885,594,o),
(907,578,c),
(919,567,o),
(932,555,o),
(940,541,c),
(946,531,o),
(947,513,o),
(941,509,c),
(933,502,o),
(917,500,o),
(906,502,c),
(891,505,o),
(877,513,o),
(858,523,c)
);
},
{
closed = 1;
nodes = (
(1128,174,o),
(1184,173,o),
(1237,167,c),
(1299,160,o),
(1361,166,o),
(1421,182,c),
(1440,187,o),
(1464,196,o),
(1473,211,c),
(1485,232,o),
(1463,249,o),
(1449,264,c),
(1438,278,o),
(1425,287,o),
(1412,300,c),
(1395,315,o),
(1391,336,o),
(1396,358,c),
(1403,376,o),
(1419,382,o),
(1438,382,c),
(1462,382,o),
(1484,380,o),
(1493,353,c),
(1503,328,o),
(1509,301,o),
(1522,276,c),
(1530,256,o),
(1544,236,o),
(1553,218,c),
(1559,205,o),
(1565,193,o),
(1566,181,c),
(1570,136,o),
(1553,97,o),
(1494,91,c),
(1406,82,o),
(1317,84,o),
(1228,96,c),
(1185,101,o),
(1140,100,o),
(1097,96,c),
(1082,96,o),
(1067,82,o),
(1053,71,c),
(1023,48,o),
(1008,45,o),
(984,64,c),
(958,86,o),
(951,117,o),
(970,144,c),
(994,177,o),
(990,218,o),
(992,255,c),
(996,320,o),
(996,383,o),
(1000,448,c),
(1001,489,o),
(1007,530,o),
(1010,570,c),
(1011,586,o),
(1011,602,o),
(1015,617,c),
(1018,630,o),
(1018,646,o),
(1037,645,c),
(1052,644,o),
(1065,634,o),
(1067,619,c),
(1072,597,o),
(1075,574,o),
(1075,552,c),
(1073,500,o),
(1065,448,o),
(1065,395,c),
(1064,329,o),
(1067,263,o),
(1068,197,c),
(1068,190,o),
(1073,184,o),
(1075,177,c)
);
},
{
closed = 1;
nodes = (
(1759,443,o),
(1752,435,o),
(1743,433,c),
(1731,430,o),
(1720,426,o),
(1708,427,c),
(1665,427,o),
(1625,425,o),
(1590,397,c),
(1585,393,o),
(1578,391,o),
(1572,390,c),
(1553,388,o),
(1536,388,o),
(1528,406,c),
(1519,427,o),
(1534,434,o),
(1548,443,c),
(1559,452,o),
(1570,460,o),
(1583,470,c),
(1576,481,o),
(1573,487,o),
(1568,496,c),
(1565,502,o),
(1560,509,o),
(1558,516,c),
(1539,557,o),
(1550,586,o),
(1581,604,c),
(1615,623,o),
(1665,608,o),
(1683,579,c),
(1699,548,o),
(1713,519,o),
(1694,481,c),
(1721,474,o),
(1744,467,o),
(1766,462,c),
(1766,457,o),
(1767,453,o),
(1767,449,c)
);
},
{
closed = 1;
nodes = (
(611,360,o),
(626,359,o),
(639,353,c),
(667,345,o),
(680,316,o),
(664,293,c),
(638,248,o),
(602,206,o),
(553,177,c),
(552,177,o),
(550,177,o),
(545,180,c),
(531,198,o),
(531,219,o),
(545,240,c),
(557,256,o),
(567,272,o),
(580,292,c),
(571,298,o),
(564,301,o),
(556,306,c),
(519,324,o),
(510,346,o),
(523,386,c),
(530,401,o),
(538,416,o),
(546,432,c),
(586,435,o),
(594,430,o),
(593,396,c),
(593,384,o),
(593,375,o),
(593,363,c)
);
},
{
closed = 1;
nodes = (
(2587,378,l),
(2576,390,o),
(2561,403,o),
(2550,419,c),
(2528,450,o),
(2543,492,o),
(2576,504,c),
(2604,513,o),
(2624,502,o),
(2626,472,c),
(2626,450,o),
(2636,441,o),
(2655,432,c),
(2696,410,o),
(2700,382,o),
(2664,350,c),
(2643,331,o),
(2624,309,o),
(2587,316,c)
);
},
{
closed = 1;
nodes = (
(645,483,o),
(615,492,o),
(587,501,c),
(578,505,o),
(567,512,o),
(560,520,c),
(550,533,o),
(549,549,o),
(557,564,c),
(565,579,o),
(582,585,o),
(596,579,c),
(631,565,o),
(663,549,o),
(695,531,c),
(707,526,o),
(721,515,o),
(713,496,c),
(705,478,o),
(690,477,o),
(674,475,c)
);
},
{
closed = 1;
nodes = (
(475,425,o),
(401,435,o),
(376,460,c),
(358,479,o),
(357,500,o),
(374,516,c),
(379,520,o),
(386,524,o),
(391,524,c),
(432,526,o),
(470,516,o),
(499,485,c),
(507,477,o),
(510,460,o),
(516,447,c)
);
},
{
closed = 1;
nodes = (
(2967,-120,o),
(2962,-113,o),
(2977,-92,c),
(2991,-73,o),
(3008,-56,o),
(3025,-41,c),
(3036,-31,o),
(3073,-38,o),
(3086,-49,c),
(3098,-63,o),
(3097,-86,o),
(3077,-101,c),
(3051,-119,o),
(3021,-134,o),
(2995,-149,c)
);
},
{
closed = 1;
nodes = (
(3263,-67,o),
(3247,-52,o),
(3232,-31,c),
(3216,-10,o),
(3226,12,o),
(3254,15,c),
(3265,15,o),
(3276,15,o),
(3285,12,c),
(3306,8,o),
(3327,3,o),
(3344,-7,c),
(3355,-12,o),
(3364,-25,o),
(3366,-34,c),
(3367,-40,o),
(3352,-52,o),
(3342,-55,c),
(3326,-60,o),
(3308,-60,o),
(3292,-63,c)
);
},
{
closed = 1;
nodes = (
(1330,-4,o),
(1339,-5,o),
(1342,-10,c),
(1361,-25,o),
(1378,-41,o),
(1392,-60,c),
(1406,-81,o),
(1392,-108,o),
(1367,-104,c),
(1339,-98,o),
(1309,-90,o),
(1290,-63,c),
(1272,-33,o),
(1285,-5,o),
(1325,-3,c)
);
},
{
closed = 1;
nodes = (
(1237,-174,o),
(1201,-172,o),
(1178,-142,c),
(1171,-133,o),
(1168,-118,o),
(1169,-108,c),
(1171,-100,o),
(1186,-92,o),
(1198,-90,c),
(1212,-89,o),
(1227,-92,o),
(1238,-98,c),
(1257,-108,o),
(1273,-122,o),
(1288,-137,c),
(1295,-143,o),
(1299,-159,o),
(1296,-167,c),
(1295,-174,o),
(1281,-178,o),
(1274,-182,c)
);
},
{
closed = 1;
nodes = (
(2634,507,o),
(2606,527,o),
(2599,552,c),
(2593,570,o),
(2599,579,o),
(2614,585,c),
(2644,597,o),
(2688,577,o),
(2701,546,c),
(2709,523,o),
(2692,505,o),
(2661,507,c)
);
},
{
closed = 1;
nodes = (
(2460,507,o),
(2434,528,o),
(2431,549,c),
(2430,563,o),
(2439,570,o),
(2450,575,c),
(2468,583,o),
(2526,570,o),
(2538,556,c),
(2550,541,o),
(2546,522,o),
(2527,516,c),
(2512,512,o),
(2497,509,o),
(2483,505,c)
);
},
{
closed = 1;
nodes = (
(471,649,o),
(513,640,o),
(530,616,c),
(545,593,o),
(536,577,o),
(508,574,c),
(471,570,o),
(447,590,o),
(436,632,c)
);
},
{
closed = 1;
nodes = (
(2960,5,o),
(2959,15,o),
(2977,35,c),
(2998,56,o),
(3023,57,o),
(3041,40,c),
(3058,20,o),
(3053,-4,o),
(3025,-11,c),
(3012,-15,o),
(2998,-16,o),
(2984,-19,c)
);
},
{
closed = 1;
nodes = (
(2572,673,o),
(2590,664,o),
(2605,652,c),
(2611,647,o),
(2613,631,o),
(2609,624,c),
(2606,616,o),
(2593,609,o),
(2584,609,c),
(2562,610,o),
(2543,620,o),
(2532,639,c),
(2522,659,o),
(2532,679,o),
(2564,679,c)
);
},
{
closed = 1;
nodes = (
(2070,80,o),
(2078,84,o),
(2095,64,c),
(2110,46,o),
(2113,59,o),
(2123,40,c),
(2130,27,o),
(2115,-8,o),
(2101,-18,c),
(2085,-26,o),
(2062,-20,o),
(2053,4,c),
(2041,33,o),
(2044,31,o),
(2035,60,c)
);
},
{
closed = 1;
nodes = (
(2183,92,o),
(2193,90,o),
(2208,68,c),
(2223,42,o),
(2219,19,o),
(2198,5,c),
(2174,-7,o),
(2153,3,o),
(2152,32,c),
(2151,46,o),
(2154,59,o),
(2155,74,c)
);
},
{
closed = 1;
nodes = (
(2160,-131,o),
(2128,-137,o),
(2113,-107,c),
(2108,-98,o),
(2114,-75,o),
(2115,-65,c),
(2116,-57,o),
(2126,-49,o),
(2134,-47,c),
(2144,-46,o),
(2154,-49,o),
(2161,-55,c),
(2174,-65,o),
(2185,-79,o),
(2195,-94,c),
(2200,-100,o),
(2202,-116,o),
(2200,-124,c),
(2200,-131,o),
(2190,-135,o),
(2185,-139,c)
);
}
